<?xml version="1.0" standalone="no"?>
<!DOCTYPE svg PUBLIC "-//W3C//DTD SVG 20010904//EN"
 "http://www.w3.org/TR/2001/REC-SVG-20010904/DTD/svg10.dtd">
<svg version="1.0" xmlns="http://www.w3.org/2000/svg"
 width="256.000000pt" height="256.000000pt" viewBox="0 0 256.000000 256.000000"
 preserveAspectRatio="xMidYMid meet">

<g transform="translate(0.000000,256.000000) scale(0.100000,-0.100000)"
fill="#000000" stroke="none">
<path d="M1214 1838 c-32 -51 -101 -159 -154 -240 -192 -297 -210 -326 -210
-337 0 -5 9 -15 19 -21 22 -11 20 -13 305 430 123 192 130 200 161 200 57 0
65 -20 65 -166 l0 -130 -214 -214 c-203 -202 -214 -216 -199 -233 9 -9 21 -16
26 -14 5 1 107 101 227 221 l219 219 0 151 1 152 -36 37 c-34 34 -41 37 -94
37 l-57 0 -59 -92z"/>
<path d="M1492 1813 l3 -28 218 -3 217 -2 0 30 0 30 -221 0 -220 0 3 -27z"/>
<path d="M1490 1560 l0 -30 220 0 220 0 0 30 0 30 -220 0 -220 0 0 -30z"/>
<path d="M600 1405 c-10 -12 -7 -22 16 -52 27 -35 29 -44 27 -113 -2 -41 2
-82 7 -90 5 -8 58 -63 117 -122 l107 -108 92 0 c140 0 140 -6 8 -140 l-108
-110 -118 0 -118 0 0 -30 0 -30 128 0 127 0 263 263 263 264 259 -3 260 -2 0
29 0 29 -272 0 -273 0 -130 -130 -131 -131 -245 246 c-135 135 -250 245 -256
245 -6 0 -16 -7 -23 -15z m268 -302 l127 -123 -50 0 c-49 0 -50 0 -147 97 -95
94 -98 99 -98 142 0 52 -19 66 168 -116z"/>
<path d="M1450 1006 c0 -17 7 -25 25 -28 22 -5 25 -2 25 23 0 24 -4 29 -25 29
-20 0 -25 -5 -25 -24z"/>
<path d="M1610 1000 c0 -25 4 -30 25 -30 21 0 25 5 25 30 0 25 -4 30 -25 30
-21 0 -25 -5 -25 -30z"/>
<path d="M1770 1000 c0 -25 4 -30 25 -30 21 0 25 5 25 30 0 25 -4 30 -25 30
-21 0 -25 -5 -25 -30z"/>
<path d="M1290 840 c0 -25 4 -30 25 -30 21 0 25 5 25 30 0 25 -4 30 -25 30
-21 0 -25 -5 -25 -30z"/>
<path d="M1450 840 c0 -25 4 -30 25 -30 21 0 25 5 25 30 0 25 -4 30 -25 30
-21 0 -25 -5 -25 -30z"/>
<path d="M1610 840 c0 -25 4 -30 25 -30 21 0 25 5 25 30 0 25 -4 30 -25 30
-21 0 -25 -5 -25 -30z"/>
<path d="M1770 840 c0 -25 4 -30 25 -30 21 0 25 5 25 30 0 25 -4 30 -25 30
-21 0 -25 -5 -25 -30z"/>
<path d="M1130 680 c0 -25 4 -30 25 -30 21 0 25 5 25 30 0 25 -4 30 -25 30
-21 0 -25 -5 -25 -30z"/>
<path d="M1288 705 c-3 -3 -3 -17 0 -30 3 -18 11 -25 28 -25 20 0 24 5 24 30
0 25 -4 30 -23 30 -13 0 -26 -2 -29 -5z"/>
<path d="M1450 680 c0 -25 4 -30 25 -30 21 0 25 5 25 30 0 25 -4 30 -25 30
-21 0 -25 -5 -25 -30z"/>
<path d="M1610 680 c0 -25 4 -30 25 -30 21 0 25 5 25 30 0 25 -4 30 -25 30
-21 0 -25 -5 -25 -30z"/>
<path d="M1770 680 c0 -25 4 -30 25 -30 21 0 25 5 25 30 0 25 -4 30 -25 30
-21 0 -25 -5 -25 -30z"/>
</g>
</svg>
