<?xml version="1.0" standalone="no"?>
<!DOCTYPE svg PUBLIC "-//W3C//DTD SVG 20010904//EN"
 "http://www.w3.org/TR/2001/REC-SVG-20010904/DTD/svg10.dtd">
<svg version="1.0" xmlns="http://www.w3.org/2000/svg"
 width="256.000000pt" height="256.000000pt" viewBox="0 0 256.000000 256.000000"
 preserveAspectRatio="xMidYMid meet">

<g transform="translate(0.000000,256.000000) scale(0.100000,-0.100000)"
fill="#000000" stroke="none">
<path d="M863 1853 c-26 -5 -72 -50 -84 -81 -5 -13 -9 -49 -9 -80 0 -57 0 -58
-65 -122 l-65 -64 0 -123 0 -123 71 0 70 0 -1 -72 c-1 -40 -1 -148 -1 -240 l1
-168 25 0 25 0 0 158 c1 86 2 222 3 302 l2 145 68 3 67 3 0 -306 0 -306 28 3
27 3 3 238 2 237 68 0 67 0 -3 125 -3 126 -65 65 -64 65 0 62 c0 69 -13 101
-50 128 -27 19 -81 30 -117 22z m88 -72 c21 -16 24 -29 26 -97 l3 -79 65 -65
65 -66 0 -77 0 -77 -40 0 -40 0 0 60 0 60 -125 0 -125 0 0 -59 c0 -57 -1 -59
-28 -63 -49 -7 -52 -2 -52 86 l0 82 65 64 65 64 0 70 c0 58 4 74 22 93 26 28
67 30 99 4z"/>
<path d="M868 1745 c-14 -30 3 -55 38 -55 33 0 47 31 28 58 -20 29 -52 28 -66
-3z"/>
<path d="M1040 1830 l0 -30 242 0 243 0 90 -90 91 -91 19 21 c19 21 19 21 -80
120 l-100 100 -252 0 -253 0 0 -30z"/>
<path d="M1095 1661 c-3 -2 -5 -15 -5 -27 0 -25 6 -27 217 -60 l113 -18 22
-63 c22 -62 36 -73 65 -55 10 6 6 27 -16 88 l-29 79 -181 31 c-100 16 -184 28
-186 25z"/>
<path d="M1566 1441 l-156 -156 0 -137 c0 -138 0 -138 29 -170 29 -32 30 -32
135 -36 96 -4 106 -6 106 -23 0 -18 -9 -19 -135 -19 -75 0 -145 -5 -158 -11
-63 -29 -75 -133 -20 -176 39 -31 77 -35 323 -31 l215 3 3 28 3 27 -245 0
c-209 0 -247 2 -260 16 -19 19 -21 58 -3 73 8 6 76 12 173 13 l159 3 3 78 3
77 -124 0 c-160 0 -157 -3 -157 146 l0 109 143 143 142 142 83 0 82 0 0 29 0
29 -94 -1 -94 0 -156 -156z"/>
<path d="M1667 1404 c-48 -48 -87 -92 -87 -99 0 -8 9 -34 20 -59 l19 -46 146
0 145 0 0 30 0 30 -129 0 c-166 0 -170 5 -69 107 l72 73 63 0 c61 0 63 1 63
25 0 25 -1 25 -78 25 l-77 0 -88 -86z"/>
<path d="M640 710 l0 -30 313 2 312 3 3 28 3 27 -315 0 -316 0 0 -30z"/>
</g>
</svg>
