<?xml version="1.0" standalone="no"?>
<!DOCTYPE svg PUBLIC "-//W3C//DTD SVG 20010904//EN"
 "http://www.w3.org/TR/2001/REC-SVG-20010904/DTD/svg10.dtd">
<svg version="1.0" xmlns="http://www.w3.org/2000/svg"
 width="256.000000pt" height="256.000000pt" viewBox="0 0 256.000000 256.000000"
 preserveAspectRatio="xMidYMid meet">

<g transform="translate(0.000000,256.000000) scale(0.100000,-0.100000)"
fill="#000000" stroke="none">
<path d="M1195 1831 c-70 -31 -125 -113 -125 -186 0 -76 64 -166 132 -187 l39
-11 -3 -71 -3 -71 -96 -3 -96 -3 -49 44 c-81 73 -134 191 -134 300 0 26 7 77
16 113 14 56 15 67 3 75 -28 17 -39 8 -53 -43 -48 -175 -10 -341 106 -464 43
-46 48 -56 48 -97 0 -37 6 -53 30 -80 l30 -35 0 -136 0 -136 30 0 30 0 0 140
0 139 88 3 c85 3 87 3 87 28 0 25 0 25 -104 28 -111 3 -131 10 -131 48 l0 24
235 0 235 0 0 -23 c0 -28 -17 -47 -42 -47 -17 0 -18 -13 -18 -171 l0 -170 26
3 26 3 -1 135 -2 135 36 35 c30 29 35 41 35 78 0 38 6 51 47 96 25 28 62 85
82 126 32 68 36 85 39 178 l4 102 -31 0 c-32 0 -32 0 -26 -43 16 -104 -40
-254 -125 -337 l-49 -47 -88 -2 c-123 -3 -123 -3 -123 79 0 66 1 68 28 73 79
16 144 102 145 191 2 147 -147 247 -278 187z m163 -68 c14 -10 34 -36 45 -56
63 -121 -84 -258 -201 -187 -130 79 -69 280 81 267 27 -2 60 -13 75 -24z"/>
<path d="M1244 1716 c-3 -7 -4 -40 -2 -72 3 -56 4 -59 31 -62 l27 -3 0 75 c0
75 0 76 -25 76 -14 0 -28 -6 -31 -14z"/>
<path d="M1668 1828 c-24 -19 -7 -58 22 -51 28 7 33 19 20 43 -12 23 -20 25
-42 8z"/>
<path d="M1180 1055 c0 -20 5 -25 25 -25 20 0 25 5 25 25 0 20 -5 25 -25 25
-20 0 -25 -5 -25 -25z"/>
<path d="M1310 1055 c0 -21 5 -25 30 -25 25 0 30 4 30 25 0 21 -5 25 -30 25
-25 0 -30 -4 -30 -25z"/>
<path d="M1180 960 c0 -25 4 -30 25 -30 21 0 25 5 25 30 0 25 -4 30 -25 30
-21 0 -25 -5 -25 -30z"/>
<path d="M1310 960 c0 -27 3 -30 30 -30 27 0 30 3 30 30 0 27 -3 30 -30 30
-27 0 -30 -3 -30 -30z"/>
<path d="M1180 865 c0 -21 5 -25 29 -25 25 0 28 3 23 25 -3 18 -11 25 -28 25
-19 0 -24 -5 -24 -25z"/>
<path d="M1310 865 c0 -21 5 -25 30 -25 25 0 30 4 30 25 0 21 -5 25 -30 25
-25 0 -30 -4 -30 -25z"/>
<path d="M690 700 l0 -100 585 0 585 0 0 100 0 100 -585 0 -585 0 0 -100z
m1110 0 l0 -39 -312 -3 c-172 -2 -409 -2 -525 0 l-213 2 0 40 0 40 258 2 c141
2 377 2 525 0 l267 -3 0 -39z"/>
</g>
</svg>
