<?xml version="1.0" standalone="no"?>
<!DOCTYPE svg PUBLIC "-//W3C//DTD SVG 20010904//EN"
 "http://www.w3.org/TR/2001/REC-SVG-20010904/DTD/svg10.dtd">
<svg version="1.0" xmlns="http://www.w3.org/2000/svg"
 width="256.000000pt" height="256.000000pt" viewBox="0 0 256.000000 256.000000"
 preserveAspectRatio="xMidYMid meet">

<g transform="translate(0.000000,256.000000) scale(0.100000,-0.100000)"
fill="#000000" stroke="none">
<path d="M1030 1880 l0 -60 30 0 c27 0 30 3 30 30 l0 30 170 0 170 0 0 -250 0
-250 30 0 30 0 0 175 0 175 91 0 91 0 47 -47 46 -48 -37 -3 -38 -3 0 -125 0
-125 28 3 27 3 3 97 3 97 32 3 c26 2 33 9 41 36 9 32 7 36 -55 98 l-63 64
-108 0 -108 0 0 80 0 80 -230 0 -230 0 0 -60z"/>
<path d="M840 1742 l-115 -77 -3 -142 -3 -143 31 0 30 0 0 128 0 127 97 63 96
63 46 -28 46 -29 5 -159 5 -160 28 -3 27 -3 0 178 0 178 -74 43 c-40 23 -79
42 -87 42 -8 -1 -66 -35 -129 -78z"/>
<path d="M1210 1792 c0 -26 2 -27 50 -27 48 0 50 1 50 28 0 26 -2 27 -50 27
-48 0 -50 -1 -50 -28z"/>
<path d="M1210 1675 c0 -17 6 -25 18 -26 9 0 32 -1 50 -2 29 -2 32 1 32 26 0
26 -2 27 -50 27 -47 0 -50 -2 -50 -25z"/>
<path d="M910 1555 c0 -23 3 -25 50 -25 47 0 50 2 50 25 0 23 -3 25 -50 25
-47 0 -50 -2 -50 -25z"/>
<path d="M1210 1555 c0 -23 3 -25 50 -25 47 0 50 2 50 25 0 23 -3 25 -50 25
-47 0 -50 -2 -50 -25z"/>
<path d="M1210 1438 c0 -27 2 -28 50 -28 46 0 50 2 50 24 0 22 -5 24 -50 28
-49 3 -50 2 -50 -24z"/>
<path d="M910 1435 c0 -23 3 -25 48 -25 55 0 62 4 55 31 -4 15 -14 19 -54 19
-46 0 -49 -2 -49 -25z"/>
<path d="M637 1343 c-4 -3 -7 -138 -7 -300 l0 -293 613 0 613 0 0 298 -1 297
-606 3 c-333 1 -609 -1 -612 -5z m1161 -295 l-3 -243 -552 -3 -551 -2 -4 61
c-1 33 -1 63 1 65 2 2 204 4 448 4 l444 0 -3 28 -3 27 -441 3 -442 2 -3 38
c-2 20 -3 47 -1 60 l3 22 445 0 445 0 -3 28 -3 27 -442 3 c-495 3 -451 -5
-444 79 l3 43 554 0 554 0 -2 -242z"/>
<path d="M1627 1164 c-4 -4 -7 -18 -7 -31 0 -19 5 -23 31 -23 27 0 30 3 27 28
-3 26 -34 43 -51 26z"/>
<path d="M1627 984 c-4 -4 -7 -18 -7 -31 0 -19 5 -23 31 -23 27 0 30 3 27 28
-3 26 -34 43 -51 26z"/>
</g>
</svg>
