<?xml version="1.0" standalone="no"?>
<!DOCTYPE svg PUBLIC "-//W3C//DTD SVG 20010904//EN"
 "http://www.w3.org/TR/2001/REC-SVG-20010904/DTD/svg10.dtd">
<svg version="1.0" xmlns="http://www.w3.org/2000/svg"
 width="256.000000pt" height="256.000000pt" viewBox="0 0 256.000000 256.000000"
 preserveAspectRatio="xMidYMid meet">

<g transform="translate(0.000000,256.000000) scale(0.100000,-0.100000)"
fill="#000000" stroke="none">
<path d="M1150 1880 c-63 -50 -137 -108 -165 -129 -27 -22 -99 -78 -160 -126
-60 -48 -115 -90 -122 -93 -6 -4 -13 -27 -14 -52 -4 -51 -13 -47 114 -49 l77
-1 0 -155 0 -155 120 0 120 0 0 -180 0 -180 31 0 31 0 -2 98 c-1 53 -1 134 -1
180 l1 82 95 0 95 0 0 -180 0 -180 30 0 30 0 0 180 0 180 115 0 115 0 0 155 0
154 98 3 97 3 3 41 c3 46 26 24 -238 228 -74 58 -160 125 -190 149 -92 75
-150 117 -158 117 -4 0 -59 -41 -122 -90z m280 -101 c85 -67 199 -154 252
-195 53 -40 99 -78 103 -84 4 -6 -26 -10 -84 -10 l-91 0 0 -155 0 -155 -335 0
-335 0 0 155 0 154 -96 3 -96 3 137 105 c75 58 148 115 163 127 146 117 218
172 222 173 3 0 75 -54 160 -121z"/>
<path d="M747 1173 c-4 -3 -7 -125 -7 -270 l0 -263 533 2 532 3 0 265 0 265
-47 3 c-47 3 -48 3 -48 -27 0 -24 4 -31 20 -31 19 0 20 -7 20 -210 l0 -210
-475 0 -475 0 0 210 c0 203 1 210 20 210 16 0 20 7 20 30 0 29 -2 30 -43 30
-24 0 -47 -3 -50 -7z"/>
<path d="M869 1055 c-4 -3 -4 -17 -1 -30 3 -19 11 -25 31 -25 23 0 27 4 26 28
0 21 -5 28 -25 30 -14 2 -28 0 -31 -3z"/>
<path d="M990 1030 c0 -27 3 -30 30 -30 27 0 30 3 30 30 0 27 -3 30 -30 30
-27 0 -30 -3 -30 -30z"/>
<path d="M1247 1053 c-4 -3 -7 -17 -7 -30 0 -19 5 -23 30 -23 27 0 30 3 30 30
0 25 -4 30 -23 30 -13 0 -27 -3 -30 -7z"/>
<path d="M1500 1030 c0 -25 4 -30 25 -30 21 0 25 5 25 30 0 25 -4 30 -25 30
-21 0 -25 -5 -25 -30z"/>
<path d="M1627 1053 c-4 -3 -7 -17 -7 -30 0 -19 5 -23 30 -23 27 0 30 3 30 30
0 25 -4 30 -23 30 -13 0 -27 -3 -30 -7z"/>
<path d="M870 910 c0 -25 4 -30 23 -30 31 0 35 5 29 35 -3 18 -11 25 -28 25
-20 0 -24 -5 -24 -30z"/>
<path d="M990 910 c0 -27 3 -30 30 -30 27 0 30 3 30 30 0 27 -3 30 -30 30 -27
0 -30 -3 -30 -30z"/>
<path d="M1247 933 c-4 -3 -7 -17 -7 -30 0 -19 5 -23 30 -23 27 0 30 3 30 30
0 25 -4 30 -23 30 -13 0 -27 -3 -30 -7z"/>
<path d="M1500 910 c0 -25 4 -30 25 -30 21 0 25 5 25 30 0 25 -4 30 -25 30
-21 0 -25 -5 -25 -30z"/>
<path d="M1627 933 c-4 -3 -7 -17 -7 -30 0 -19 5 -23 30 -23 27 0 30 3 30 30
0 25 -4 30 -23 30 -13 0 -27 -3 -30 -7z"/>
<path d="M870 790 c0 -25 4 -30 24 -30 16 0 26 7 29 22 8 29 1 38 -29 38 -20
0 -24 -5 -24 -30z"/>
<path d="M997 813 c-4 -3 -7 -17 -7 -30 0 -19 5 -23 30 -23 27 0 30 3 30 30 0
25 -4 30 -23 30 -13 0 -27 -3 -30 -7z"/>
<path d="M1244 805 c-10 -25 4 -45 31 -45 21 0 25 5 25 30 0 25 -4 30 -25 30
-14 0 -28 -7 -31 -15z"/>
<path d="M1500 790 c0 -25 4 -30 25 -30 21 0 25 5 25 30 0 25 -4 30 -25 30
-21 0 -25 -5 -25 -30z"/>
<path d="M1627 813 c-4 -3 -7 -17 -7 -30 0 -19 5 -23 30 -23 27 0 30 3 30 30
0 25 -4 30 -23 30 -13 0 -27 -3 -30 -7z"/>
</g>
</svg>
