<?xml version="1.0" standalone="no"?>
<!DOCTYPE svg PUBLIC "-//W3C//DTD SVG 20010904//EN"
 "http://www.w3.org/TR/2001/REC-SVG-20010904/DTD/svg10.dtd">
<svg version="1.0" xmlns="http://www.w3.org/2000/svg"
 width="256.000000pt" height="256.000000pt" viewBox="0 0 256.000000 256.000000"
 preserveAspectRatio="xMidYMid meet">

<g transform="translate(0.000000,256.000000) scale(0.100000,-0.100000)"
fill="#000000" stroke="none">
<path d="M1054 1794 c-109 -86 -241 -188 -292 -228 -92 -70 -93 -71 -90 -111
l3 -40 98 -3 97 -3 0 -154 0 -155 55 0 55 0 0 -90 0 -90 -65 0 -65 0 0 -30 0
-30 155 0 155 0 0 30 c0 30 0 30 -59 30 l-59 0 -4 63 c-1 34 -2 74 0 90 l3 27
220 0 219 0 0 -90 0 -90 -60 0 -60 0 0 -30 0 -30 156 0 155 0 -3 27 c-3 27 -6
28 -65 31 l-63 3 0 89 0 90 55 0 55 0 0 155 0 154 98 3 97 3 3 40 c3 40 2 41
-90 112 -51 39 -183 141 -293 227 -109 86 -202 156 -205 156 -4 0 -96 -70
-206 -156z m365 -36 c87 -68 204 -159 261 -203 l103 -80 -97 -3 -96 -3 0 -154
0 -155 -330 0 -330 0 0 155 0 154 -96 3 -96 3 73 57 c41 32 157 123 259 202
102 80 186 145 188 146 1 0 74 -55 161 -122z"/>
<path d="M730 891 l0 -271 530 0 530 0 0 271 0 270 -47 -3 c-44 -3 -48 -5 -51
-30 -3 -21 1 -27 20 -30 l23 -3 3 -207 2 -208 -479 0 -480 0 2 208 2 207 23 3
c19 3 23 9 20 30 -3 25 -7 27 -50 30 l-48 3 0 -270z"/>
<path d="M857 1033 c-4 -3 -7 -17 -7 -30 0 -19 5 -23 30 -23 27 0 30 3 30 30
0 25 -4 30 -23 30 -13 0 -27 -3 -30 -7z"/>
<path d="M1108 1035 c-3 -3 -3 -17 0 -30 3 -18 11 -25 28 -25 20 0 24 5 24 30
0 25 -4 30 -23 30 -13 0 -26 -2 -29 -5z"/>
<path d="M1230 1010 c0 -27 3 -30 30 -30 27 0 30 3 30 30 0 27 -3 30 -30 30
-27 0 -30 -3 -30 -30z"/>
<path d="M1360 1010 c0 -25 4 -30 24 -30 14 0 25 7 28 18 8 28 -2 42 -28 42
-20 0 -24 -5 -24 -30z"/>
<path d="M1610 1011 c0 -28 3 -31 31 -31 27 0 30 3 27 28 -2 21 -9 28 -30 30
-25 3 -28 0 -28 -27z"/>
<path d="M1230 890 c0 -27 3 -30 30 -30 27 0 30 3 30 30 0 27 -3 30 -30 30
-27 0 -30 -3 -30 -30z"/>
<path d="M857 793 c-4 -3 -7 -17 -7 -30 0 -19 5 -23 30 -23 27 0 30 3 30 30 0
25 -4 30 -23 30 -13 0 -27 -3 -30 -7z"/>
<path d="M980 771 c0 -28 3 -31 31 -31 27 0 30 3 27 28 -2 21 -9 28 -30 30
-25 3 -28 0 -28 -27z"/>
<path d="M1108 795 c-3 -3 -3 -17 0 -30 3 -18 11 -25 28 -25 20 0 24 5 24 30
0 25 -4 30 -23 30 -13 0 -26 -2 -29 -5z"/>
<path d="M1230 770 c0 -27 3 -30 30 -30 27 0 30 3 30 30 0 27 -3 30 -30 30
-27 0 -30 -3 -30 -30z"/>
<path d="M1360 770 c0 -25 4 -30 25 -30 21 0 25 5 25 30 0 25 -4 30 -25 30
-21 0 -25 -5 -25 -30z"/>
<path d="M1484 785 c-10 -25 4 -45 31 -45 21 0 25 5 25 30 0 25 -4 30 -25 30
-14 0 -28 -7 -31 -15z"/>
<path d="M1610 771 c0 -28 3 -31 31 -31 27 0 30 3 27 28 -2 21 -9 28 -30 30
-25 3 -28 0 -28 -27z"/>
</g>
</svg>
