<?xml version="1.0" standalone="no"?>
<!DOCTYPE svg PUBLIC "-//W3C//DTD SVG 20010904//EN"
 "http://www.w3.org/TR/2001/REC-SVG-20010904/DTD/svg10.dtd">
<svg version="1.0" xmlns="http://www.w3.org/2000/svg"
 width="256.000000pt" height="256.000000pt" viewBox="0 0 256.000000 256.000000"
 preserveAspectRatio="xMidYMid meet">

<g transform="translate(0.000000,256.000000) scale(0.100000,-0.100000)"
fill="#000000" stroke="none">
<path d="M1140 1560 l0 -280 -133 0 -133 0 -32 -33 -32 -33 0 -112 0 -112 450
0 450 0 0 109 0 108 -34 37 -35 36 -135 0 -136 0 0 280 0 280 -30 0 -30 0 0
-310 0 -310 153 0 c186 0 187 -1 187 -103 l0 -67 -395 0 -395 0 0 68 c0 101 2
102 188 102 l152 0 0 310 0 310 -30 0 -30 0 0 -280z"/>
<path d="M640 1190 l0 -430 620 0 620 0 0 430 0 430 -235 0 -235 0 0 -25 0
-25 205 0 205 0 0 -375 0 -375 -565 0 -565 0 3 373 2 372 203 3 202 2 0 25 0
25 -230 0 -230 0 0 -430z"/>
<path d="M804 1496 c-11 -28 4 -48 33 -44 22 2 28 8 28 28 0 20 -6 26 -28 28
-18 2 -29 -2 -33 -12z"/>
<path d="M972 1483 c2 -22 9 -29 31 -31 24 -3 27 0 27 27 0 28 -3 31 -31 31
-27 0 -30 -3 -27 -27z"/>
<path d="M1480 1480 c0 -27 3 -30 30 -30 27 0 30 3 30 30 0 27 -3 30 -30 30
-27 0 -30 -3 -30 -30z"/>
<path d="M1650 1480 c0 -27 3 -30 30 -30 27 0 30 3 30 30 0 27 -3 30 -30 30
-27 0 -30 -3 -30 -30z"/>
<path d="M807 1383 c-4 -3 -7 -15 -7 -25 0 -14 8 -18 33 -18 28 0 33 4 35 25
1 21 -2 25 -26 25 -16 0 -32 -3 -35 -7z"/>
<path d="M970 1365 c0 -21 5 -25 30 -25 25 0 30 4 30 25 0 21 -5 25 -30 25
-25 0 -30 -4 -30 -25z"/>
<path d="M1480 1365 c0 -21 5 -25 30 -25 25 0 30 4 30 25 0 21 -5 25 -30 25
-25 0 -30 -4 -30 -25z"/>
<path d="M1650 1365 c0 -21 5 -25 30 -25 25 0 30 4 30 25 0 21 -5 25 -30 25
-25 0 -30 -4 -30 -25z"/>
<path d="M804 903 c1 -24 5 -28 30 -28 24 0 30 5 33 28 3 25 1 27 -30 27 -31
0 -34 -3 -33 -27z"/>
<path d="M972 903 c2 -22 9 -29 31 -31 24 -3 27 0 27 27 0 28 -3 31 -31 31
-27 0 -30 -3 -27 -27z"/>
<path d="M1142 903 c2 -22 9 -29 31 -31 24 -3 27 0 27 27 0 28 -3 31 -31 31
-27 0 -30 -3 -27 -27z"/>
<path d="M1312 903 c2 -23 8 -28 31 -28 23 -1 27 3 27 27 0 25 -4 28 -31 28
-27 0 -30 -3 -27 -27z"/>
<path d="M1480 900 c0 -28 3 -30 28 -27 21 3 28 10 30 30 3 24 0 27 -27 27
-28 0 -31 -3 -31 -30z"/>
<path d="M1650 900 c0 -26 3 -29 23 -26 12 3 25 5 30 5 4 1 7 12 7 26 0 21 -5
25 -30 25 -27 0 -30 -3 -30 -30z"/>
</g>
</svg>
