<?xml version="1.0" standalone="no"?>
<!DOCTYPE svg PUBLIC "-//W3C//DTD SVG 20010904//EN"
 "http://www.w3.org/TR/2001/REC-SVG-20010904/DTD/svg10.dtd">
<svg version="1.0" xmlns="http://www.w3.org/2000/svg"
 width="256.000000pt" height="256.000000pt" viewBox="0 0 256.000000 256.000000"
 preserveAspectRatio="xMidYMid meet">

<g transform="translate(0.000000,256.000000) scale(0.100000,-0.100000)"
fill="#000000" stroke="none">
<path d="M1160 1616 l0 -226 -136 0 -137 0 -33 -36 -34 -35 0 -110 0 -109 85
0 85 0 0 -205 0 -205 30 0 30 0 0 205 0 205 55 0 55 0 0 -205 0 -205 30 0 30
0 0 205 0 205 55 0 55 0 0 -205 0 -205 30 0 30 0 0 205 0 205 55 0 55 0 0
-206 0 -205 28 3 27 3 1 190 c1 105 2 196 3 203 1 8 24 12 81 12 l80 0 0 113
0 113 -33 32 -33 32 -132 0 -132 0 -2 223 -3 222 -27 3 -28 3 0 -255 0 -256
153 0 c186 0 187 -1 187 -103 l0 -67 -395 0 -395 0 0 68 c0 100 2 101 185 104
l150 3 0 250 0 250 -27 3 -28 3 0 -225z"/>
<path d="M651 1190 l-2 -430 141 0 c77 0 143 -1 148 -2 4 -2 8 9 10 25 l3 27
-120 0 -121 0 0 375 c0 293 3 375 13 375 6 1 99 1 205 0 l192 0 0 30 0 30
-234 0 -234 0 -1 -430z"/>
<path d="M1430 1590 l0 -30 205 0 205 0 0 -375 0 -375 -120 0 -120 0 0 -25 c0
-27 1 -27 180 -27 17 0 48 1 70 1 l40 1 0 430 0 430 -230 0 -230 0 0 -30z"/>
<path d="M824 1501 c-2 -2 -4 -15 -4 -28 0 -19 5 -23 30 -23 27 0 30 3 30 30
0 26 -3 29 -26 28 -14 -2 -27 -4 -30 -7z"/>
<path d="M995 1502 c-3 -3 -5 -16 -5 -29 0 -19 5 -23 30 -23 25 0 30 4 30 24
0 17 -7 25 -25 28 -13 3 -27 3 -30 0z"/>
<path d="M1503 1503 c-5 -2 -8 -15 -5 -28 3 -20 10 -25 34 -25 26 0 29 3 26
27 -3 25 -25 36 -55 26z"/>
<path d="M1660 1475 c0 -22 4 -25 35 -25 31 0 35 3 35 25 0 22 -4 25 -35 25
-31 0 -35 -3 -35 -25z"/>
<path d="M820 1015 c0 -21 5 -25 30 -25 25 0 30 4 30 25 0 21 -5 25 -30 25
-25 0 -30 -4 -30 -25z"/>
<path d="M1662 1015 c2 -21 7 -25 35 -25 29 0 33 3 33 25 0 22 -4 25 -35 25
-31 0 -35 -3 -33 -25z"/>
<path d="M820 900 c0 -27 3 -30 30 -30 27 0 30 3 30 30 0 27 -3 30 -30 30 -27
0 -30 -3 -30 -30z"/>
<path d="M1665 920 c-14 -23 6 -50 36 -50 27 0 30 3 27 28 -2 21 -9 28 -30 30
-14 2 -29 -2 -33 -8z"/>
</g>
</svg>
