<?xml version="1.0" standalone="no"?>
<!DOCTYPE svg PUBLIC "-//W3C//DTD SVG 20010904//EN"
 "http://www.w3.org/TR/2001/REC-SVG-20010904/DTD/svg10.dtd">
<svg version="1.0" xmlns="http://www.w3.org/2000/svg"
 width="256.000000pt" height="256.000000pt" viewBox="0 0 256.000000 256.000000"
 preserveAspectRatio="xMidYMid meet">

<g transform="translate(0.000000,256.000000) scale(0.100000,-0.100000)"
fill="#000000" stroke="none">
<path d="M1270 1789 c-14 -5 -93 -78 -177 -161 l-152 -152 -110 0 -111 -1 0
-103 c0 -96 2 -105 25 -127 l24 -25 561 0 c541 0 561 1 579 19 25 25 33 68 29
160 l-3 73 -111 0 -111 0 -149 150 c-82 82 -161 156 -176 164 -31 16 -81 17
-118 3z m222 -176 c70 -70 128 -130 128 -135 0 -4 -133 -7 -295 -7 -162 0
-295 2 -295 6 0 3 58 63 129 134 172 173 160 173 333 2z m388 -258 c0 -61 -2
-66 -26 -75 -15 -6 -231 -10 -544 -10 -503 0 -520 1 -530 19 -5 11 -10 38 -10
60 0 77 -51 71 561 71 l549 0 0 -65z"/>
<path d="M1240 1595 c-26 -32 13 -81 48 -59 34 22 22 74 -18 74 -10 0 -23 -7
-30 -15z"/>
<path d="M1370 1590 c-13 -23 2 -60 25 -60 30 0 45 13 45 40 0 42 -51 56 -70
20z"/>
<path d="M847 1153 c-14 -14 -6 -53 13 -63 40 -22 80 26 48 58 -13 13 -50 16
-61 5z"/>
<path d="M994 1136 c-12 -49 43 -76 70 -33 15 24 -3 51 -37 55 -21 3 -28 -2
-33 -22z"/>
<path d="M1153 1153 c-18 -7 -16 -48 2 -63 21 -17 65 2 65 28 0 33 -31 50 -67
35z"/>
<path d="M1294 1136 c-12 -49 43 -76 70 -33 15 24 -3 51 -37 55 -21 3 -28 -2
-33 -22z"/>
<path d="M1450 1145 c-26 -32 13 -81 48 -59 34 22 22 74 -18 74 -10 0 -23 -7
-30 -15z"/>
<path d="M1600 1145 c-26 -32 13 -81 48 -59 34 22 22 74 -18 74 -10 0 -23 -7
-30 -15z"/>
<path d="M1750 1145 c-26 -32 13 -81 48 -59 34 22 22 74 -18 74 -10 0 -23 -7
-30 -15z"/>
<path d="M851 1016 c-8 -10 -11 -26 -7 -42 5 -20 12 -25 33 -22 14 2 31 11 37
21 23 36 -36 76 -63 43z"/>
<path d="M1001 1016 c-8 -10 -11 -26 -7 -42 5 -20 12 -25 33 -22 14 2 31 11
37 21 23 36 -36 76 -63 43z"/>
<path d="M1150 1015 c-26 -32 13 -81 48 -59 34 22 22 74 -18 74 -10 0 -23 -7
-30 -15z"/>
<path d="M1301 1016 c-8 -10 -11 -26 -7 -42 5 -20 12 -25 33 -22 14 2 31 11
37 21 23 36 -36 76 -63 43z"/>
<path d="M1450 1015 c-26 -32 13 -81 48 -59 34 22 22 74 -18 74 -10 0 -23 -7
-30 -15z"/>
<path d="M1600 1015 c-26 -32 13 -81 48 -59 34 22 22 74 -18 74 -10 0 -23 -7
-30 -15z"/>
<path d="M1750 1015 c-26 -32 13 -81 48 -59 34 22 22 74 -18 74 -10 0 -23 -7
-30 -15z"/>
<path d="M720 795 c0 -99 2 -107 25 -130 l24 -25 555 0 555 0 28 24 c27 24 28
27 28 128 l0 103 -607 3 -608 2 0 -105z m1158 -22 l-3 -68 -547 -3 -547 -2 -6
33 c-5 26 -3 86 4 105 1 1 249 2 551 2 l551 0 -3 -67z"/>
</g>
</svg>
