<?xml version="1.0" standalone="no"?>
<!DOCTYPE svg PUBLIC "-//W3C//DTD SVG 20010904//EN"
 "http://www.w3.org/TR/2001/REC-SVG-20010904/DTD/svg10.dtd">
<svg version="1.0" xmlns="http://www.w3.org/2000/svg"
 width="256.000000pt" height="256.000000pt" viewBox="0 0 256.000000 256.000000"
 preserveAspectRatio="xMidYMid meet">

<g transform="translate(0.000000,256.000000) scale(0.100000,-0.100000)"
fill="#000000" stroke="none">
<path d="M1060 1854 c-196 -34 -314 -94 -355 -180 -28 -60 -16 -173 28 -266
81 -168 242 -268 432 -268 140 0 254 49 347 149 67 71 100 136 118 229 12 58
15 62 40 62 24 0 30 -8 64 -92 21 -51 51 -126 68 -165 l30 -73 69 0 69 0 0 30
c0 29 -1 30 -50 30 -43 0 -52 3 -60 23 -5 12 -34 83 -65 157 -30 74 -61 137
-67 141 -6 4 -29 5 -50 3 -34 -4 -39 -2 -49 23 -29 77 -120 139 -254 175 -67
18 -260 32 -315 22z m254 -69 c155 -29 266 -104 266 -180 0 -129 -281 -224
-543 -184 -175 27 -306 118 -290 201 24 127 316 211 567 163z m-359 -406 c164
-46 405 -25 546 46 27 14 49 23 49 20 0 -36 -90 -140 -160 -185 -120 -77 -285
-84 -419 -18 -78 38 -111 66 -155 132 -54 83 -53 90 7 56 29 -16 88 -39 132
-51z"/>
<path d="M924 1715 c-4 -9 0 -23 9 -32 21 -21 49 -9 45 19 -4 28 -45 38 -54
13z"/>
<path d="M1066 1714 c-7 -19 10 -44 30 -44 16 0 33 30 27 48 -7 18 -50 15 -57
-4z"/>
<path d="M1206 1714 c-7 -18 10 -44 28 -44 23 0 36 22 25 42 -12 22 -45 24
-53 2z"/>
<path d="M1346 1714 c-7 -19 10 -44 30 -44 20 0 36 34 22 48 -17 17 -45 15
-52 -4z"/>
<path d="M862 1628 c-17 -17 -15 -36 6 -47 25 -13 44 1 40 30 -3 27 -27 36
-46 17z"/>
<path d="M1001 1626 c-17 -20 -3 -46 25 -46 19 0 24 5 24 24 0 13 -7 27 -16
30 -21 8 -20 8 -33 -8z"/>
<path d="M1142 1628 c-16 -16 -15 -23 3 -42 17 -17 40 -12 49 9 5 14 -18 45
-33 45 -4 0 -12 -5 -19 -12z"/>
<path d="M1280 1625 c-17 -21 -5 -45 24 -45 28 0 37 17 24 43 -11 21 -31 22
-48 2z"/>
<path d="M1422 1628 c-7 -7 -12 -18 -12 -25 0 -15 30 -32 48 -26 17 7 15 50
-4 57 -20 8 -18 8 -32 -6z"/>
<path d="M930 1525 c-11 -13 -11 -19 3 -32 21 -21 49 -9 45 19 -4 28 -30 35
-48 13z"/>
<path d="M1070 1525 c-11 -13 -11 -19 3 -32 21 -21 49 -9 45 19 -4 28 -30 35
-48 13z"/>
<path d="M1210 1525 c-10 -12 -10 -18 0 -30 7 -8 18 -15 25 -15 7 0 18 7 25
15 10 12 10 18 0 30 -7 8 -18 15 -25 15 -7 0 -18 -7 -25 -15z"/>
<path d="M1347 1526 c-10 -26 4 -47 27 -44 15 2 21 10 21 28 0 29 -38 41 -48
16z"/>
<path d="M734 1233 c-96 -227 -94 -220 -94 -338 l0 -111 53 -52 53 -52 420 0
420 1 52 53 52 53 0 110 c0 112 -4 129 -60 248 -5 11 -18 43 -29 70 -16 42
-23 50 -42 47 -13 -1 -25 -5 -28 -7 -3 -3 19 -63 47 -133 50 -121 52 -131 52
-217 l0 -91 -38 -37 -38 -37 -395 0 c-383 0 -395 1 -412 20 -9 11 -17 22 -17
25 0 3 128 5 285 5 l285 0 0 30 0 30 -301 0 -300 0 3 88 c4 77 9 99 52 200 27
62 47 114 45 116 -2 2 -14 7 -27 10 -19 6 -25 2 -38 -31z"/>
<path d="M1350 820 c0 -27 3 -30 30 -30 27 0 30 3 30 30 0 27 -3 30 -30 30
-27 0 -30 -3 -30 -30z"/>
</g>
</svg>
