<?xml version="1.0" standalone="no"?>
<!DOCTYPE svg PUBLIC "-//W3C//DTD SVG 20010904//EN"
 "http://www.w3.org/TR/2001/REC-SVG-20010904/DTD/svg10.dtd">
<svg version="1.0" xmlns="http://www.w3.org/2000/svg"
 width="256.000000pt" height="256.000000pt" viewBox="0 0 256.000000 256.000000"
 preserveAspectRatio="xMidYMid meet">

<g transform="translate(0.000000,256.000000) scale(0.100000,-0.100000)"
fill="#000000" stroke="none">
<path d="M1121 1874 c-14 -18 -21 -41 -21 -70 l0 -44 -94 0 -93 0 -52 -142
c-28 -79 -51 -147 -51 -152 0 -4 16 -30 36 -57 l35 -49 396 3 c376 2 396 3
407 21 6 10 22 32 35 48 l23 28 -53 150 -54 150 -91 0 -91 0 -5 50 c-8 85 -19
90 -174 90 -131 0 -133 0 -153 -26z m269 -74 l0 -40 -115 0 -115 0 0 40 0 40
115 0 115 0 0 -40z m245 -210 l42 -115 -19 -28 -20 -27 -365 2 -366 3 -18 25
c-18 25 -18 26 24 143 l42 117 319 -2 318 -3 43 -115z"/>
<path d="M1043 1302 l-253 -2 0 -25 0 -25 486 0 485 0 -3 26 -3 25 -230 2
c-126 1 -344 1 -482 -1z"/>
<path d="M937 1203 c-4 -3 -7 -16 -7 -28 0 -18 9 -25 45 -35 l45 -13 0 -56 0
-57 -45 -22 c-42 -20 -45 -24 -45 -62 l0 -40 -114 0 -115 0 -3 -117 c-2 -65
-2 -135 0 -155 l3 -38 575 0 574 0 0 155 0 155 -115 0 -115 0 0 40 c0 38 -3
41 -51 65 l-50 26 3 52 3 52 48 14 c39 12 47 19 47 38 0 29 -23 40 -53 25 -12
-6 -39 -16 -59 -22 l-38 -12 0 -94 0 -94 45 -22 c34 -17 45 -28 45 -45 l0 -23
-284 0 c-175 0 -287 4 -291 10 -11 17 13 46 54 65 l41 18 0 92 0 92 -65 22
c-75 24 -70 23 -78 14z m853 -468 l0 -95 -520 0 -520 0 0 94 0 95 53 3 c28 2
262 2 520 0 l467 -2 0 -95z"/>
<path d="M850 735 c0 -21 5 -25 30 -25 25 0 30 4 30 25 0 21 -5 25 -30 25 -25
0 -30 -4 -30 -25z"/>
<path d="M1010 735 c0 -21 5 -25 30 -25 25 0 30 4 30 25 0 21 -5 25 -30 25
-25 0 -30 -4 -30 -25z"/>
<path d="M1170 735 c0 -20 5 -25 25 -25 20 0 25 5 25 25 0 20 -5 25 -25 25
-20 0 -25 -5 -25 -25z"/>
<path d="M1320 735 c0 -21 5 -25 30 -25 25 0 30 4 30 25 0 21 -5 25 -30 25
-25 0 -30 -4 -30 -25z"/>
<path d="M1480 735 c0 -21 5 -25 30 -25 25 0 30 4 30 25 0 21 -5 25 -30 25
-25 0 -30 -4 -30 -25z"/>
<path d="M1640 736 c0 -17 7 -25 25 -28 22 -5 25 -2 25 23 0 24 -4 29 -25 29
-20 0 -25 -5 -25 -24z"/>
</g>
</svg>
