<?xml version="1.0" standalone="no"?>
<!DOCTYPE svg PUBLIC "-//W3C//DTD SVG 20010904//EN"
 "http://www.w3.org/TR/2001/REC-SVG-20010904/DTD/svg10.dtd">
<svg version="1.0" xmlns="http://www.w3.org/2000/svg"
 width="256.000000pt" height="256.000000pt" viewBox="0 0 256.000000 256.000000"
 preserveAspectRatio="xMidYMid meet">

<g transform="translate(0.000000,256.000000) scale(0.100000,-0.100000)"
fill="#000000" stroke="none">
<path d="M1444 1931 c-2 -2 -4 -15 -4 -28 0 -27 -3 -28 -35 -7 -36 23 -123 29
-167 11 -39 -17 -78 -67 -78 -102 1 -35 35 -98 84 -152 80 -89 96 -164 52
-251 -31 -60 -68 -95 -131 -124 -46 -21 -68 -23 -273 -28 -279 -6 -262 5 -262
-174 0 -104 3 -125 20 -146 l19 -25 446 -3 446 -3 29 30 30 29 0 485 0 486
-86 3 c-47 2 -88 1 -90 -1z m114 -508 l-3 -458 -432 -3 -433 -2 0 115 0 115
400 0 400 0 0 338 c0 186 3 342 7 345 3 4 19 7 35 7 l28 0 -2 -457z m-191 426
c15 -6 38 -20 51 -31 22 -21 22 -24 22 -295 l0 -273 -100 0 -100 0 41 37 c60
55 92 124 93 203 0 79 -20 124 -95 210 -61 70 -74 119 -38 144 27 18 85 21
126 5z"/>
<path d="M1660 1545 c0 -25 1 -25 90 -25 86 0 91 -1 125 -31 22 -19 35 -40 35
-55 l0 -24 -125 0 -125 0 0 -30 c0 -29 1 -30 50 -30 l50 0 2 -195 c0 -107 1
-201 2 -207 1 -7 -9 -14 -21 -16 -30 -4 -33 -52 -4 -52 19 0 35 -23 24 -34 -4
-3 -15 -6 -25 -6 -13 0 -18 -8 -18 -30 0 -22 5 -30 18 -30 10 0 21 -3 25 -6
11 -11 -5 -34 -24 -34 -29 0 -26 -48 4 -52 18 -2 22 -9 22 -38 0 -31 3 -35 28
-38 26 -3 27 -1 27 37 0 37 2 41 25 41 20 0 25 5 25 25 0 20 -5 25 -25 25 -18
0 -25 5 -25 20 0 15 7 20 25 20 21 0 25 5 25 30 0 25 -4 30 -25 30 -18 0 -25
5 -25 20 0 15 7 20 25 20 20 0 25 5 25 25 0 20 -5 25 -25 25 l-25 0 0 210 0
210 70 0 70 0 0 67 c0 66 -1 68 -42 110 l-42 43 -108 0 -108 0 0 -25z"/>
<path d="M1080 845 c0 -12 -19 -15 -111 -15 -86 0 -117 -4 -139 -17 -70 -41
-67 -153 5 -188 28 -13 86 -15 363 -15 191 0 342 4 356 10 30 11 66 65 66 98
0 36 -27 80 -60 97 -20 11 -60 15 -133 15 -84 0 -106 3 -111 15 -3 8 -17 15
-31 15 -23 0 -25 -4 -25 -45 l0 -45 140 0 c140 0 140 0 152 -25 8 -19 8 -31 0
-50 l-12 -25 -340 0 -340 0 -16 25 c-15 23 -15 27 0 50 16 24 20 25 154 27
l137 3 3 43 c3 41 2 42 -27 42 -21 0 -31 -5 -31 -15z"/>
</g>
</svg>
