<?xml version="1.0" standalone="no"?>
<!DOCTYPE svg PUBLIC "-//W3C//DTD SVG 20010904//EN"
 "http://www.w3.org/TR/2001/REC-SVG-20010904/DTD/svg10.dtd">
<svg version="1.0" xmlns="http://www.w3.org/2000/svg"
 width="256.000000pt" height="256.000000pt" viewBox="0 0 256.000000 256.000000"
 preserveAspectRatio="xMidYMid meet">

<g transform="translate(0.000000,256.000000) scale(0.100000,-0.100000)"
fill="#000000" stroke="none">
<path d="M732 1887 l-32 -33 0 -115 0 -115 38 -36 c33 -32 42 -35 87 -32 28 1
258 3 512 3 l462 1 30 33 c31 32 31 33 31 148 l0 115 -33 32 -33 32 -515 0
-515 0 -32 -33z m1061 -48 c13 -16 17 -40 17 -102 0 -69 -3 -84 -22 -104 l-21
-23 -486 0 c-576 0 -531 -11 -531 126 0 118 5 123 145 126 61 2 283 2 495 0
378 -2 385 -2 403 -23z"/>
<path d="M857 1793 c-2 -5 -2 -18 -1 -30 1 -13 2 -39 3 -59 1 -31 4 -35 24
-32 20 3 22 9 25 66 3 60 2 62 -22 62 -14 0 -27 -3 -29 -7z"/>
<path d="M1012 1738 c3 -60 4 -63 28 -63 24 0 25 3 28 63 l3 62 -31 0 -31 0 3
-62z"/>
<path d="M1172 1738 c3 -60 4 -63 28 -63 24 0 25 3 28 63 l3 62 -31 0 -31 0 3
-62z"/>
<path d="M1332 1738 c3 -60 4 -63 28 -63 24 0 25 3 28 63 l3 62 -31 0 -31 0 3
-62z"/>
<path d="M1492 1738 c3 -60 4 -63 28 -63 24 0 25 3 28 63 l3 62 -31 0 -31 0 3
-62z"/>
<path d="M1652 1738 c3 -57 5 -63 26 -66 21 -3 22 0 22 62 0 64 -1 66 -25 66
-25 0 -26 -1 -23 -62z"/>
<path d="M767 1512 c-8 -9 -25 -37 -38 -62 -23 -44 -24 -52 -27 -332 -3 -319
-2 -330 61 -368 31 -19 54 -20 517 -20 463 0 486 1 517 20 63 38 64 49 61 368
l-3 287 -27 51 c-36 68 -54 83 -76 61 -15 -16 -15 -19 1 -45 50 -77 52 -84 55
-349 4 -291 -1 -314 -67 -333 -52 -14 -888 -13 -930 1 -56 20 -61 42 -61 298
0 248 8 311 46 362 29 40 30 51 5 66 -15 10 -22 9 -34 -5z"/>
<path d="M1235 1455 c-22 -8 -48 -25 -59 -37 -233 -284 -329 -414 -329 -440 0
-44 29 -65 113 -83 186 -39 427 -40 627 -1 94 18 123 36 123 79 0 27 -29 68
-171 245 -94 117 -181 219 -193 226 -35 22 -69 25 -111 11z m63 -51 c24 -7
341 -392 349 -425 4 -13 -7 -18 -54 -27 -118 -23 -280 -34 -389 -28 -121 6
-284 32 -298 46 -10 10 308 412 339 428 25 13 25 13 53 6z"/>
<path d="M1254 1356 c-10 -26 4 -48 28 -44 17 2 23 10 23 28 0 18 -6 26 -23
28 -13 2 -25 -3 -28 -12z"/>
<path d="M1262 1248 c-25 -25 0 -64 32 -52 21 8 21 50 0 58 -20 8 -18 8 -32
-6z"/>
<path d="M1137 1143 c-4 -3 -7 -17 -7 -30 0 -18 6 -23 24 -23 15 0 26 7 29 19
7 29 -26 54 -46 34z"/>
<path d="M1254 1136 c-10 -26 4 -48 28 -44 17 2 23 10 23 28 0 18 -6 26 -23
28 -13 2 -25 -3 -28 -12z"/>
<path d="M1384 1135 c-9 -23 3 -45 25 -45 10 0 21 7 25 15 8 23 -4 45 -25 45
-11 0 -22 -7 -25 -15z"/>
<path d="M1143 1043 c-19 -7 -16 -53 3 -60 20 -7 45 22 38 42 -7 16 -24 24
-41 18z"/>
<path d="M1267 1038 c-21 -11 -22 -31 -3 -47 20 -16 46 -3 46 24 0 27 -19 37
-43 23z"/>
<path d="M1393 1043 c-19 -7 -16 -50 4 -57 24 -10 51 20 37 41 -12 19 -23 24
-41 16z"/>
<path d="M1003 1024 c-3 -8 2 -23 11 -32 15 -15 17 -15 32 0 21 21 11 48 -16
48 -11 0 -23 -7 -27 -16z"/>
<path d="M1503 1024 c-8 -21 19 -46 40 -38 9 3 17 17 17 30 0 19 -5 24 -25 24
-14 0 -28 -7 -32 -16z"/>
</g>
</svg>
