<?xml version="1.0" standalone="no"?>
<!DOCTYPE svg PUBLIC "-//W3C//DTD SVG 20010904//EN"
 "http://www.w3.org/TR/2001/REC-SVG-20010904/DTD/svg10.dtd">
<svg version="1.0" xmlns="http://www.w3.org/2000/svg"
 width="256.000000pt" height="256.000000pt" viewBox="0 0 256.000000 256.000000"
 preserveAspectRatio="xMidYMid meet">

<g transform="translate(0.000000,256.000000) scale(0.100000,-0.100000)"
fill="#000000" stroke="none">
<path d="M1214 1882 c-56 -45 -55 -114 1 -159 l35 -28 0 -302 0 -303 25 0 c14
0 26 6 26 13 1 6 1 142 -1 301 l-2 288 36 29 c59 49 57 119 -3 166 -24 18 -93
15 -117 -5z m90 -48 c30 -30 13 -74 -29 -74 -46 0 -60 48 -23 74 28 20 33 20
52 0z"/>
<path d="M985 1550 l-170 -170 -92 0 c-92 0 -93 0 -93 -25 l0 -25 285 0 285 0
0 25 0 25 -152 0 -153 0 150 150 c149 149 150 150 130 170 -20 20 -21 19 -190
-150z"/>
<path d="M1369 1694 c-11 -13 8 -36 137 -165 l149 -149 -153 0 -152 0 0 -25 0
-25 140 -1 c77 0 158 -1 180 -1 262 0 262 0 258 25 -3 21 -8 22 -98 25 l-95 3
-164 164 c-91 91 -170 165 -177 165 -6 0 -17 -7 -25 -16z"/>
<path d="M630 1245 c0 -20 5 -25 25 -25 20 0 25 5 25 25 0 20 -5 25 -25 25
-20 0 -25 -5 -25 -25z"/>
<path d="M750 1245 c0 -21 5 -25 30 -25 25 0 30 4 30 25 0 21 -5 25 -30 25
-25 0 -30 -4 -30 -25z"/>
<path d="M880 1245 c0 -20 5 -25 25 -25 20 0 25 5 25 25 0 20 -5 25 -25 25
-20 0 -25 -5 -25 -25z"/>
<path d="M1000 1245 c0 -21 5 -25 30 -25 25 0 30 4 30 25 0 21 -5 25 -30 25
-25 0 -30 -4 -30 -25z"/>
<path d="M1122 1245 c-1 -22 2 -25 28 -25 25 0 30 4 30 25 0 21 -5 25 -28 25
-22 0 -28 -5 -30 -25z"/>
<path d="M1370 1245 c0 -21 5 -25 30 -25 25 0 30 4 30 25 0 21 -5 25 -30 25
-25 0 -30 -4 -30 -25z"/>
<path d="M1495 1248 c1 -17 9 -24 28 -26 23 -3 27 0 27 22 0 22 -5 26 -28 26
-24 0 -28 -4 -27 -22z"/>
<path d="M1620 1245 c0 -21 5 -25 30 -25 25 0 30 4 30 25 0 21 -5 25 -30 25
-25 0 -30 -4 -30 -25z"/>
<path d="M1742 1245 c-1 -22 2 -25 28 -25 25 0 30 4 30 25 0 21 -5 25 -28 25
-22 0 -28 -5 -30 -25z"/>
<path d="M1870 1245 c0 -23 4 -26 28 -23 19 2 27 9 27 23 0 14 -8 21 -27 23
-24 3 -28 0 -28 -23z"/>
<path d="M630 1150 c0 -25 4 -30 25 -30 21 0 25 5 25 30 0 25 -4 30 -25 30
-21 0 -25 -5 -25 -30z"/>
<path d="M750 1150 c0 -27 3 -30 30 -30 27 0 30 3 30 30 0 27 -3 30 -30 30
-27 0 -30 -3 -30 -30z"/>
<path d="M880 1150 c0 -25 4 -30 25 -30 21 0 25 5 25 30 0 25 -4 30 -25 30
-21 0 -25 -5 -25 -30z"/>
<path d="M1000 1150 c0 -27 3 -30 30 -30 27 0 30 3 30 30 0 27 -3 30 -30 30
-27 0 -30 -3 -30 -30z"/>
<path d="M1126 1172 c-12 -20 2 -47 27 -50 24 -3 27 0 27 27 0 26 -4 31 -24
31 -14 0 -27 -4 -30 -8z"/>
<path d="M1377 1173 c-4 -3 -7 -17 -7 -30 0 -19 5 -23 30 -23 27 0 30 3 30 30
0 25 -4 30 -23 30 -13 0 -27 -3 -30 -7z"/>
<path d="M1499 1168 c0 -7 -2 -21 -4 -30 -2 -14 4 -18 26 -18 26 0 29 4 29 30
0 25 -4 30 -25 30 -14 0 -25 -6 -26 -12z"/>
<path d="M1620 1150 c0 -27 3 -30 30 -30 27 0 30 3 30 30 0 27 -3 30 -30 30
-27 0 -30 -3 -30 -30z"/>
<path d="M1747 1173 c-4 -3 -7 -17 -7 -30 0 -19 5 -23 30 -23 27 0 30 3 30 30
0 25 -4 30 -23 30 -13 0 -27 -3 -30 -7z"/>
<path d="M1870 1150 c0 -28 3 -31 28 -28 21 2 27 8 27 28 0 20 -6 26 -27 28
-25 3 -28 0 -28 -28z"/>
<path d="M880 1064 c-8 -1 -59 -6 -114 -9 -141 -10 -135 1 -135 -240 0 -184 1
-197 21 -217 20 -20 25 -20 522 -14 275 4 545 6 599 6 74 -1 105 3 123 15 l24
15 0 200 c0 161 -3 201 -15 213 -13 14 -112 27 -210 28 -22 1 -60 1 -85 2 -25
1 -76 0 -115 -2 -38 -2 -172 0 -298 4 -169 5 -231 4 -242 -5 -10 -8 -19 -8
-34 -1 -11 6 -21 10 -23 10 -2 -1 -10 -3 -18 -5z m30 -66 c0 -6 -10 -43 -22
-81 -16 -48 -29 -71 -43 -76 -23 -9 -140 -5 -155 4 -15 9 -13 132 3 142 11 7
95 17 185 21 19 1 32 -3 32 -10z m222 -74 c2 -49 -1 -89 -7 -94 -28 -22 -204
-32 -205 -11 -1 3 12 48 27 98 l28 93 77 0 77 0 3 -86z m257 80 c30 -6 31 -9
31 -56 0 -84 -14 -100 -120 -127 -76 -19 -94 -21 -101 -10 -5 8 -9 56 -9 107
l0 92 84 0 c46 0 98 -3 115 -6z m260 -51 c21 -108 25 -103 -85 -103 l-95 0 7
73 c4 39 12 75 18 79 6 4 41 8 77 8 l66 0 12 -57z m204 41 c14 -5 17 -18 17
-86 l0 -80 -65 4 c-35 2 -67 7 -71 10 -7 8 -33 123 -34 151 0 17 6 18 68 12
37 -4 75 -9 85 -11z m-209 -241 c3 -21 6 -53 6 -70 l0 -33 -90 0 c-98 0 -97
-1 -78 62 9 31 9 44 0 59 -12 18 -8 19 72 19 l83 0 7 -37z m159 20 l67 -6 0
-58 0 -59 -80 0 c-77 0 -80 1 -80 24 0 13 -3 45 -7 71 -6 45 -5 48 13 41 10
-5 49 -11 87 -13z m-908 -7 c19 -13 19 -17 5 -73 l-15 -58 -88 -3 c-105 -3
-117 3 -117 65 0 77 8 83 108 83 60 0 94 -5 107 -14z m524 -4 c7 -13 6 -34 -3
-67 -11 -43 -16 -50 -45 -58 -18 -4 -54 -7 -79 -5 l-47 3 -3 49 c-2 27 1 53 6
58 12 12 99 36 134 37 17 1 31 -6 37 -17z m-251 -4 c14 -14 16 -96 4 -116 -6
-9 -36 -12 -113 -10 l-104 3 3 40 c5 61 14 69 89 81 93 16 107 16 121 2z"/>
</g>
</svg>
