<?xml version="1.0" standalone="no"?>
<!DOCTYPE svg PUBLIC "-//W3C//DTD SVG 20010904//EN"
 "http://www.w3.org/TR/2001/REC-SVG-20010904/DTD/svg10.dtd">
<svg version="1.0" xmlns="http://www.w3.org/2000/svg"
 width="256.000000pt" height="256.000000pt" viewBox="0 0 256.000000 256.000000"
 preserveAspectRatio="xMidYMid meet">

<g transform="translate(0.000000,256.000000) scale(0.100000,-0.100000)"
fill="#000000" stroke="none">
<path d="M1080 1890 c-19 -19 -20 -33 -20 -213 0 -164 2 -196 17 -217 9 -14
21 -28 27 -32 5 -3 -34 -49 -87 -102 -96 -96 -97 -96 -146 -96 l-50 0 -3 -62
-3 -63 -62 -3 c-59 -3 -63 -4 -63 -27 l0 -24 138 -3 137 -3 3 -132 3 -133 309
0 310 0 0 135 0 135 140 0 140 0 0 25 c0 24 -2 25 -65 25 l-64 0 -3 63 -3 62
-61 3 -60 3 -94 94 c-52 52 -89 95 -82 95 7 0 21 15 32 33 18 29 20 50 20 228
0 177 -2 197 -18 212 -16 15 -45 17 -195 17 -164 0 -179 -2 -197 -20z m358
-220 c-3 -203 -5 -207 -78 -217 l-42 -6 138 -138 c135 -135 140 -139 181 -139
42 0 43 0 43 -35 l0 -35 -402 3 -403 2 -3 33 -3 32 206 0 206 0 -3 28 -3 27
-130 1 c-71 0 -133 2 -137 2 -4 1 40 48 98 104 57 55 104 105 104 110 0 4 -8
8 -19 8 -10 0 -30 9 -45 21 l-26 20 0 180 0 179 161 0 160 0 -3 -180z m92
-724 l0 -104 -62 -4 c-35 -1 -148 -1 -253 0 l-190 4 1 96 c0 54 2 100 2 104 1
4 115 7 252 7 l250 0 0 -103z"/>
<path d="M1330 1200 c0 -28 3 -31 28 -28 21 2 27 8 27 28 0 20 -6 26 -27 28
-25 3 -28 0 -28 -28z"/>
<path d="M692 943 c2 -20 9 -28 23 -28 14 0 21 8 23 28 3 23 0 27 -23 27 -23
0 -26 -4 -23 -27z"/>
<path d="M832 943 c2 -20 9 -29 26 -31 19 -3 22 1 22 27 0 27 -4 31 -26 31
-22 0 -25 -4 -22 -27z"/>
<path d="M1670 939 c0 -27 3 -30 28 -27 21 2 28 9 30 31 3 24 0 27 -27 27 -28
0 -31 -3 -31 -31z"/>
<path d="M1810 939 c0 -27 3 -30 28 -27 21 2 28 9 30 31 3 24 0 27 -27 27 -28
0 -31 -3 -31 -31z"/>
<path d="M690 809 c0 -24 4 -29 25 -29 20 0 25 5 25 24 0 17 -7 25 -25 28 -22
5 -25 2 -25 -23z"/>
<path d="M1670 811 c0 -28 3 -31 31 -31 27 0 30 3 27 28 -2 21 -9 28 -30 30
-25 3 -28 0 -28 -27z"/>
<path d="M1810 809 c0 -26 4 -29 31 -29 27 0 30 3 27 28 -2 22 -8 27 -30 28
-24 1 -28 -3 -28 -27z"/>
<path d="M830 805 c0 -20 5 -25 25 -25 20 0 25 5 25 25 0 20 -5 25 -25 25 -20
0 -25 -5 -25 -25z"/>
<path d="M690 671 c0 -24 4 -28 28 -27 15 1 26 4 25 9 -2 4 -3 16 -3 27 0 15
-7 20 -25 20 -21 0 -25 -5 -25 -29z"/>
<path d="M830 675 c0 -20 5 -25 25 -25 20 0 25 5 25 25 0 20 -5 25 -25 25 -20
0 -25 -5 -25 -25z"/>
<path d="M972 673 c2 -22 8 -28 28 -28 20 0 25 5 27 28 2 24 -2 27 -28 27 -27
0 -30 -3 -27 -27z"/>
<path d="M1110 675 c0 -20 5 -25 25 -25 20 0 25 5 25 25 0 20 -5 25 -25 25
-20 0 -25 -5 -25 -25z"/>
<path d="M1250 669 c0 -27 3 -30 28 -27 21 2 28 9 30 31 3 24 0 27 -27 27 -28
0 -31 -3 -31 -31z"/>
<path d="M1390 670 c0 -28 3 -31 28 -28 21 2 27 8 27 28 0 20 -6 26 -27 28
-25 3 -28 0 -28 -28z"/>
<path d="M1530 669 c0 -27 3 -30 28 -27 21 2 28 9 30 31 3 24 0 27 -27 27 -28
0 -31 -3 -31 -31z"/>
<path d="M1670 669 c0 -27 3 -30 28 -27 21 2 28 9 30 31 3 24 0 27 -27 27 -28
0 -31 -3 -31 -31z"/>
<path d="M1810 671 c0 -26 3 -30 28 -28 21 2 28 8 30 30 3 24 0 27 -27 27 -28
0 -31 -3 -31 -29z"/>
</g>
</svg>
