<?xml version="1.0" standalone="no"?>
<!DOCTYPE svg PUBLIC "-//W3C//DTD SVG 20010904//EN"
 "http://www.w3.org/TR/2001/REC-SVG-20010904/DTD/svg10.dtd">
<svg version="1.0" xmlns="http://www.w3.org/2000/svg"
 width="256.000000pt" height="256.000000pt" viewBox="0 0 256.000000 256.000000"
 preserveAspectRatio="xMidYMid meet">

<g transform="translate(0.000000,256.000000) scale(0.100000,-0.100000)"
fill="#000000" stroke="none">
<path d="M987 1813 c-4 -3 -7 -114 -7 -245 l0 -238 -131 0 -130 0 3 -27 3 -28
128 -3 127 -3 0 -127 0 -127 90 -90 90 -90 0 493 0 492 -83 0 c-46 0 -87 -3
-90 -7z m113 -445 l0 -392 -30 29 -30 29 0 363 0 363 30 0 30 0 0 -392z"/>
<path d="M1490 1328 l0 -493 85 85 85 85 0 132 0 133 130 0 130 0 0 30 0 30
-130 0 -130 0 0 245 0 245 -85 0 -85 0 0 -492z m120 70 l0 -362 -27 -28 c-32
-34 -44 -36 -39 -5 3 12 5 187 5 390 l1 367 30 0 30 0 0 -362z"/>
<path d="M722 1183 c2 -22 9 -29 29 -31 19 -2 28 2 31 15 8 30 -2 43 -33 43
-27 0 -30 -3 -27 -27z"/>
<path d="M850 1179 c0 -28 2 -30 31 -27 26 2 32 8 35 31 2 25 0 27 -32 27 -31
0 -34 -2 -34 -31z"/>
<path d="M1230 1180 c0 -27 3 -30 30 -30 27 0 30 3 30 30 0 27 -3 30 -30 30
-27 0 -30 -3 -30 -30z"/>
<path d="M1360 1179 c0 -27 3 -30 28 -27 21 2 28 9 30 31 3 24 0 27 -27 27
-28 0 -31 -3 -31 -31z"/>
<path d="M1732 1183 c3 -24 8 -28 33 -28 25 0 30 4 33 28 3 25 1 27 -33 27
-34 0 -36 -2 -33 -27z"/>
<path d="M1862 1183 c2 -22 9 -29 31 -31 24 -3 27 0 27 27 0 28 -3 31 -31 31
-27 0 -30 -3 -27 -27z"/>
<path d="M720 1065 c0 -22 4 -25 33 -25 29 0 33 3 33 25 0 22 -4 25 -33 25
-29 0 -33 -3 -33 -25z"/>
<path d="M850 1065 c0 -21 5 -25 30 -25 25 0 30 4 30 25 0 21 -5 25 -30 25
-25 0 -30 -4 -30 -25z"/>
<path d="M1230 1065 c0 -21 5 -25 30 -25 25 0 30 4 30 25 0 21 -5 25 -30 25
-25 0 -30 -4 -30 -25z"/>
<path d="M1360 1065 c0 -21 5 -25 30 -25 25 0 30 4 30 25 0 21 -5 25 -30 25
-25 0 -30 -4 -30 -25z"/>
<path d="M1730 1065 c0 -22 4 -25 35 -25 31 0 35 3 35 25 0 22 -4 25 -35 25
-31 0 -35 -3 -35 -25z"/>
<path d="M1860 1065 c0 -21 5 -25 30 -25 25 0 30 4 30 25 0 21 -5 25 -30 25
-25 0 -30 -4 -30 -25z"/>
<path d="M720 945 c0 -21 5 -25 30 -25 17 0 30 3 31 8 0 4 2 15 4 25 3 13 -4
17 -31 17 -30 0 -34 -3 -34 -25z"/>
<path d="M850 945 c0 -22 5 -25 33 -25 28 0 32 3 32 25 0 22 -4 25 -32 25 -28
0 -33 -3 -33 -25z"/>
<path d="M1230 945 c0 -21 5 -25 30 -25 25 0 30 4 30 25 0 21 -5 25 -30 25
-25 0 -30 -4 -30 -25z"/>
<path d="M1360 945 c0 -21 5 -25 30 -25 25 0 30 4 30 25 0 21 -5 25 -30 25
-25 0 -30 -4 -30 -25z"/>
<path d="M1730 945 c0 -22 4 -25 35 -25 31 0 35 3 35 25 0 22 -4 25 -35 25
-31 0 -35 -3 -35 -25z"/>
<path d="M1860 945 c0 -21 5 -25 30 -25 25 0 30 4 30 25 0 21 -5 25 -30 25
-25 0 -30 -4 -30 -25z"/>
<path d="M727 854 c-4 -4 -7 -18 -7 -31 0 -20 5 -23 35 -23 33 0 35 2 32 28
-3 20 -10 28 -28 30 -14 2 -28 0 -32 -4z"/>
<path d="M850 830 c0 -27 3 -30 33 -30 32 0 33 2 29 30 -4 25 -9 30 -33 30
-26 0 -29 -4 -29 -30z"/>
<path d="M980 830 c0 -27 3 -30 30 -30 27 0 30 3 30 30 0 27 -3 30 -30 30 -27
0 -30 -3 -30 -30z"/>
<path d="M1230 830 c0 -27 3 -30 30 -30 27 0 30 3 30 30 0 27 -3 30 -30 30
-27 0 -30 -3 -30 -30z"/>
<path d="M1360 830 c0 -27 3 -30 30 -30 27 0 30 3 30 30 0 27 -3 30 -30 30
-27 0 -30 -3 -30 -30z"/>
<path d="M1607 854 c-4 -4 -7 -18 -7 -31 0 -20 5 -23 35 -23 33 0 35 2 32 28
-3 20 -10 28 -28 30 -14 2 -28 0 -32 -4z"/>
<path d="M1737 854 c-4 -4 -7 -18 -7 -31 0 -20 5 -23 36 -23 33 0 35 2 32 28
-2 20 -9 28 -28 30 -14 2 -29 0 -33 -4z"/>
<path d="M1867 853 c-4 -3 -7 -17 -7 -30 0 -19 5 -23 30 -23 27 0 30 3 30 30
0 25 -4 30 -23 30 -13 0 -27 -3 -30 -7z"/>
</g>
</svg>
