<?xml version="1.0" standalone="no"?>
<!DOCTYPE svg PUBLIC "-//W3C//DTD SVG 20010904//EN"
 "http://www.w3.org/TR/2001/REC-SVG-20010904/DTD/svg10.dtd">
<svg version="1.0" xmlns="http://www.w3.org/2000/svg"
 width="256.000000pt" height="256.000000pt" viewBox="0 0 256.000000 256.000000"
 preserveAspectRatio="xMidYMid meet">

<g transform="translate(0.000000,256.000000) scale(0.100000,-0.100000)"
fill="#000000" stroke="none">
<path d="M938 2000 l4 -30 154 3 154 2 0 -82 0 -83 -53 0 c-48 0 -56 -3 -90
-38 l-37 -38 0 -227 0 -227 -30 0 c-25 0 -30 -4 -30 -25 0 -25 1 -25 88 -25
48 0 123 -1 167 -2 44 -1 126 0 183 0 102 2 102 2 102 27 0 22 -4 25 -35 25
l-35 0 0 233 0 232 -37 33 c-32 27 -45 32 -90 32 l-53 0 0 80 c0 44 3 80 8 80
4 0 75 1 157 3 l150 2 3 28 3 27 -344 0 -344 0 5 -30z m466 -265 c5 -13 -14
-15 -131 -15 -119 0 -134 2 -123 15 10 12 38 15 130 15 96 0 119 -3 124 -15z
m16 -262 l0 -188 -143 0 -142 0 -3 188 -2 187 145 0 145 0 0 -187z"/>
<path d="M780 1041 c0 -166 4 -311 10 -325 22 -59 21 -59 485 -58 285 1 431 4
445 12 11 6 27 21 35 34 16 24 17 37 15 469 l0 167 -25 0 c-25 0 -25 0 -25
-95 l0 -95 -440 0 -439 0 -3 93 -3 92 -27 3 -28 3 0 -300z m940 -118 c0 -150
-2 -179 -17 -195 -15 -17 -41 -18 -420 -18 -260 0 -411 4 -424 10 -18 10 -19
23 -19 194 l0 183 440 1 440 1 0 -176z"/>
<path d="M910 1016 c0 -19 6 -25 30 -28 27 -4 30 -2 30 24 0 24 -4 28 -30 28
-25 0 -30 -4 -30 -24z"/>
<path d="M1050 1012 c0 -25 3 -28 28 -24 20 3 27 9 28 28 2 20 -3 24 -27 24
-25 0 -29 -4 -29 -28z"/>
<path d="M1180 1016 c0 -17 7 -25 25 -28 30 -6 35 -2 35 29 0 19 -5 23 -30 23
-25 0 -30 -4 -30 -24z"/>
<path d="M1316 1024 c-9 -22 1 -34 30 -34 19 0 24 5 24 25 0 20 -5 25 -24 25
-13 0 -27 -7 -30 -16z"/>
<path d="M1450 1012 c0 -26 3 -28 30 -24 24 3 30 9 30 28 0 20 -5 24 -30 24
-26 0 -30 -4 -30 -28z"/>
<path d="M1580 1015 c0 -21 5 -25 30 -25 25 0 30 4 30 25 0 21 -5 25 -30 25
-25 0 -30 -4 -30 -25z"/>
<path d="M910 906 c0 -16 7 -26 22 -29 29 -8 38 -1 38 29 0 20 -5 24 -30 24
-25 0 -30 -4 -30 -24z"/>
<path d="M1050 902 c0 -25 4 -29 27 -27 21 1 27 6 27 28 1 23 -2 27 -26 27
-24 0 -28 -4 -28 -28z"/>
<path d="M1180 905 c0 -21 5 -25 30 -25 25 0 30 4 30 25 0 21 -5 25 -30 25
-25 0 -30 -4 -30 -25z"/>
<path d="M1320 905 c0 -20 5 -25 25 -25 20 0 25 5 25 25 0 20 -5 25 -25 25
-20 0 -25 -5 -25 -25z"/>
<path d="M1450 904 c0 -22 4 -25 28 -22 19 2 28 9 30 26 3 19 -1 22 -27 22
-27 0 -31 -4 -31 -26z"/>
<path d="M1580 905 c0 -15 6 -25 14 -25 8 0 21 -3 30 -6 13 -5 16 1 16 25 0
28 -3 31 -30 31 -25 0 -30 -4 -30 -25z"/>
<path d="M913 796 c0 -19 6 -25 28 -28 26 -4 29 -2 29 24 0 24 -4 28 -29 28
-23 0 -28 -4 -28 -24z"/>
<path d="M1050 795 c0 -14 3 -25 8 -26 4 0 15 -2 24 -4 9 -2 19 3 22 11 9 24
-5 44 -30 44 -19 0 -24 -5 -24 -25z"/>
<path d="M1180 795 c0 -21 5 -25 30 -25 25 0 30 4 30 25 0 21 -5 25 -30 25
-25 0 -30 -4 -30 -25z"/>
<path d="M1320 795 c0 -20 5 -25 25 -25 20 0 25 5 25 25 0 20 -5 25 -25 25
-20 0 -25 -5 -25 -25z"/>
<path d="M1450 795 c0 -20 5 -25 24 -25 15 0 26 7 29 19 6 25 0 31 -30 31 -18
0 -23 -5 -23 -25z"/>
<path d="M1580 796 c0 -16 7 -27 20 -31 27 -9 40 1 40 31 0 20 -5 24 -30 24
-25 0 -30 -4 -30 -24z"/>
</g>
</svg>
