<?xml version="1.0" standalone="no"?>
<!DOCTYPE svg PUBLIC "-//W3C//DTD SVG 20010904//EN"
 "http://www.w3.org/TR/2001/REC-SVG-20010904/DTD/svg10.dtd">
<svg version="1.0" xmlns="http://www.w3.org/2000/svg"
 width="256.000000pt" height="256.000000pt" viewBox="0 0 256.000000 256.000000"
 preserveAspectRatio="xMidYMid meet">

<g transform="translate(0.000000,256.000000) scale(0.100000,-0.100000)"
fill="#000000" stroke="none">
<path d="M1090 1910 l0 -80 -43 0 c-33 0 -49 -6 -65 -23 -21 -22 -22 -31 -22
-246 l0 -223 -35 -34 -35 -34 0 -118 c0 -175 -31 -162 371 -162 l326 0 22 24
c19 21 22 32 19 101 l-3 77 -188 79 c-169 71 -195 79 -253 79 l-64 0 0 155 0
155 118 1 c64 1 123 1 130 0 8 -1 12 17 12 62 0 53 -4 67 -23 85 -21 20 -34
22 -121 22 -95 0 -97 1 -96 23 1 12 2 48 1 80 -1 54 -2 57 -26 57 -25 0 -25
-1 -25 -80z m231 -147 c0 -5 2 -16 4 -25 3 -17 -10 -18 -156 -18 -148 0 -159
1 -159 18 0 10 3 22 7 25 9 10 303 9 304 0z m-252 -258 l-1 -155 -29 0 -29 0
0 155 0 155 30 0 31 0 -2 -155z m222 -236 c41 -16 120 -49 177 -71 l102 -41 0
-54 0 -53 -310 0 -310 0 0 97 c0 92 1 98 27 125 26 27 30 28 134 28 97 0 114
-3 180 -31z"/>
<path d="M580 1020 l0 -30 73 0 c71 0 73 -1 150 -55 l77 -55 370 0 371 0 82
55 c80 54 83 55 154 55 l73 0 0 30 0 30 -81 0 -81 0 -79 -55 -78 -55 -358 0
-358 0 -78 55 -77 55 -80 0 -80 0 0 -30z"/>
<path d="M580 910 c0 -25 4 -30 25 -30 21 0 25 5 25 30 0 25 -4 30 -25 30 -21
0 -25 -5 -25 -30z"/>
<path d="M720 909 c0 -27 3 -30 28 -27 21 2 28 9 30 31 3 24 0 27 -27 27 -28
0 -31 -3 -31 -31z"/>
<path d="M1730 909 c0 -27 3 -30 28 -27 21 2 28 9 30 31 3 24 0 27 -27 27 -28
0 -31 -3 -31 -31z"/>
<path d="M1872 913 c2 -22 9 -29 31 -31 24 -3 27 0 27 27 0 28 -3 31 -31 31
-27 0 -30 -3 -27 -27z"/>
<path d="M580 809 c0 -24 4 -29 25 -29 21 0 25 5 25 29 0 24 -4 29 -25 29 -21
0 -25 -5 -25 -29z"/>
<path d="M727 834 c-4 -4 -7 -18 -7 -31 0 -19 5 -23 31 -23 27 0 30 3 27 28
-3 26 -34 43 -51 26z"/>
<path d="M866 833 c-3 -3 -6 -17 -6 -30 0 -19 5 -23 30 -23 26 0 30 4 30 28 0
22 -5 28 -24 30 -13 1 -26 -1 -30 -5z"/>
<path d="M1010 808 c0 -24 4 -28 30 -28 25 0 30 4 30 24 0 19 -6 25 -30 28
-27 4 -30 2 -30 -24z"/>
<path d="M1300 809 c0 -24 4 -29 25 -29 18 0 25 5 25 20 0 11 1 23 3 28 1 4
-10 7 -25 8 -24 1 -28 -3 -28 -27z"/>
<path d="M1445 832 c-3 -3 -5 -16 -5 -29 0 -19 5 -23 31 -23 27 0 30 3 27 28
-2 20 -9 27 -25 28 -12 1 -25 -1 -28 -4z"/>
<path d="M1584 831 c-2 -2 -4 -15 -4 -28 0 -19 5 -23 30 -23 26 0 30 4 30 28
0 22 -4 27 -26 27 -14 0 -28 -2 -30 -4z"/>
<path d="M1730 808 c0 -25 4 -28 31 -28 27 0 30 3 27 27 -2 21 -9 27 -30 28
-24 1 -28 -3 -28 -27z"/>
<path d="M1883 833 c-7 -3 -13 -16 -13 -29 0 -20 5 -24 30 -24 25 0 30 4 30
24 0 24 -22 37 -47 29z"/>
<path d="M1150 805 c0 -21 5 -25 30 -25 25 0 30 4 30 25 0 21 -5 25 -30 25
-25 0 -30 -4 -30 -25z"/>
<path d="M580 700 c0 -25 4 -30 25 -30 21 0 25 5 25 30 0 25 -4 30 -25 30 -21
0 -25 -5 -25 -30z"/>
<path d="M720 701 c0 -28 3 -31 31 -31 27 0 30 3 27 28 -2 21 -9 28 -30 30
-25 3 -28 0 -28 -27z"/>
<path d="M867 723 c-4 -3 -7 -17 -7 -30 0 -19 5 -23 30 -23 27 0 30 3 30 30 0
25 -4 30 -23 30 -13 0 -27 -3 -30 -7z"/>
<path d="M1010 701 c0 -28 3 -31 31 -31 27 0 30 3 27 28 -2 21 -9 28 -30 30
-25 3 -28 0 -28 -27z"/>
<path d="M1150 700 c0 -27 3 -30 30 -30 27 0 30 3 30 30 0 27 -3 30 -30 30
-27 0 -30 -3 -30 -30z"/>
<path d="M1299 725 c-8 -36 -2 -50 24 -53 24 -3 27 0 27 27 0 26 -4 31 -25 31
-14 0 -25 -2 -26 -5z"/>
<path d="M1440 700 c0 -27 3 -30 30 -30 27 0 30 3 30 30 0 27 -3 30 -30 30
-27 0 -30 -3 -30 -30z"/>
<path d="M1587 723 c-4 -3 -7 -17 -7 -30 0 -19 5 -23 30 -23 27 0 30 3 30 30
0 25 -4 30 -23 30 -13 0 -27 -3 -30 -7z"/>
<path d="M1730 701 c0 -28 3 -31 31 -31 27 0 30 3 27 28 -2 21 -9 28 -30 30
-25 3 -28 0 -28 -27z"/>
<path d="M1877 723 c-4 -3 -7 -17 -7 -30 0 -19 5 -23 30 -23 27 0 30 3 30 30
0 25 -4 30 -23 30 -13 0 -27 -3 -30 -7z"/>
</g>
</svg>
