<?xml version="1.0" standalone="no"?>
<!DOCTYPE svg PUBLIC "-//W3C//DTD SVG 20010904//EN"
 "http://www.w3.org/TR/2001/REC-SVG-20010904/DTD/svg10.dtd">
<svg version="1.0" xmlns="http://www.w3.org/2000/svg"
 width="256.000000pt" height="256.000000pt" viewBox="0 0 256.000000 256.000000"
 preserveAspectRatio="xMidYMid meet">

<g transform="translate(0.000000,256.000000) scale(0.100000,-0.100000)"
fill="#000000" stroke="none">
<path d="M980 1768 c0 -51 -2 -54 -36 -73 -19 -10 -49 -34 -66 -54 -26 -30
-30 -40 -25 -78 6 -52 24 -75 83 -104 39 -18 44 -25 44 -54 0 -27 -5 -35 -30
-45 -16 -7 -46 -30 -65 -51 -61 -68 -44 -139 47 -185 41 -21 48 -29 48 -53 0
-23 -8 -34 -34 -51 -122 -75 -128 -178 -14 -234 144 -70 420 -61 583 19 60 29
141 98 161 136 20 40 18 96 -7 130 -24 34 -35 36 -49 10 -7 -14 -6 -27 4 -46
25 -48 -6 -99 -95 -156 -106 -68 -276 -99 -427 -79 -155 20 -225 68 -181 124
10 13 35 34 53 46 32 19 40 20 124 10 66 -8 118 -8 193 0 57 6 106 13 108 15
2 2 0 16 -3 31 -6 21 -11 25 -30 20 -48 -12 -195 -18 -259 -12 -60 7 -67 10
-67 29 0 22 2 22 125 19 201 -6 351 38 452 131 75 69 92 131 53 195 -22 36
-32 39 -51 16 -10 -12 -10 -20 -1 -35 36 -56 -11 -131 -116 -187 -94 -50 -169
-66 -317 -65 -110 0 -139 4 -188 22 -69 27 -89 45 -85 79 4 34 82 96 113 88
73 -19 352 -12 373 8 2 3 1 17 -2 32 -6 21 -11 25 -29 20 -40 -12 -212 -19
-270 -12 -50 7 -57 10 -57 29 0 22 2 22 139 19 118 -3 152 0 216 17 98 27 165
62 222 114 60 55 76 89 70 144 -5 51 -31 83 -88 108 -44 20 -45 20 -53 -15 -5
-22 -1 -28 37 -45 37 -18 42 -24 45 -57 3 -30 -3 -44 -32 -76 -71 -78 -197
-127 -362 -138 -179 -13 -344 41 -327 106 6 22 70 75 111 91 21 8 23 14 20 76
-3 66 -4 68 -30 71 -27 3 -28 2 -28 -50z"/>
<path d="M1457 1413 c-15 -4 -17 -11 -12 -31 9 -36 11 -37 40 -24 20 9 23 15
16 34 -9 24 -17 28 -44 21z"/>
<path d="M1458 1073 c-20 -5 -22 -16 -8 -43 6 -12 17 -16 30 -13 28 7 33 19
20 43 -11 20 -12 21 -42 13z"/>
<path d="M1296 684 l-29 -36 -19 31 c-23 36 -29 38 -52 12 -16 -17 -14 -21 29
-75 l46 -56 23 27 c12 16 35 45 51 66 27 36 27 38 9 52 -26 20 -25 20 -58 -21z"/>
</g>
</svg>
