<?xml version="1.0" standalone="no"?>
<!DOCTYPE svg PUBLIC "-//W3C//DTD SVG 20010904//EN"
 "http://www.w3.org/TR/2001/REC-SVG-20010904/DTD/svg10.dtd">
<svg version="1.0" xmlns="http://www.w3.org/2000/svg"
 width="256.000000pt" height="256.000000pt" viewBox="0 0 256.000000 256.000000"
 preserveAspectRatio="xMidYMid meet">

<g transform="translate(0.000000,256.000000) scale(0.100000,-0.100000)"
fill="#ffffff" stroke="none">
<path d="M1340 1766 l0 -103 -46 -7 c-26 -3 -82 -6 -125 -6 l-79 0 0 101 0
100 -27 -3 -28 -3 -3 -97 c-3 -109 7 -98 -102 -113 -85 -12 -165 -36 -203 -61
-34 -22 -38 -29 -35 -61 2 -25 11 -42 29 -56 29 -21 193 -67 241 -67 26 0 29
3 26 27 -3 25 -8 28 -82 40 -74 12 -166 45 -166 58 0 14 99 46 184 60 50 9
190 20 311 25 300 13 428 37 486 90 36 35 37 62 2 95 -44 41 -217 85 -335 85
l-48 0 0 -104z m237 19 c40 -9 82 -24 94 -34 l22 -17 -37 -18 c-35 -16 -121
-37 -213 -50 l-43 -6 0 76 0 77 53 -6 c28 -3 85 -13 124 -22z"/>
<path d="M1030 1361 l0 -159 -52 -7 c-152 -18 -268 -59 -285 -98 -31 -72 48
-119 255 -152 41 -7 42 -6 42 22 0 28 -1 29 -91 46 -49 9 -106 25 -126 36
l-37 18 25 16 c58 38 247 67 439 67 145 0 346 23 431 50 139 43 158 118 42
168 -53 23 -210 55 -224 46 -5 -3 -9 -16 -9 -30 0 -20 5 -24 28 -24 64 0 222
-50 222 -70 0 -19 -188 -70 -260 -70 l-30 0 0 151 0 150 -27 -3 -28 -3 -3
-152 -3 -153 -124 0 -125 0 0 155 0 155 -30 0 -30 0 0 -159z"/>
<path d="M1030 966 l0 -105 -32 -22 c-18 -13 -36 -28 -40 -34 -13 -18 -8 -63
9 -80 15 -15 42 -17 272 -12 217 4 269 8 339 26 98 25 136 43 157 75 38 58
-26 111 -167 140 -102 21 -115 20 -121 -6 -4 -12 -5 -24 -3 -26 2 -2 44 -11
93 -21 49 -11 105 -27 123 -36 32 -17 33 -18 15 -32 -33 -23 -114 -43 -245
-58 -131 -16 -420 -21 -420 -7 0 4 18 18 40 32 l40 25 0 122 0 123 -30 0 -30
0 0 -104z"/>
<path d="M1342 958 l3 -113 28 -3 27 -3 0 115 0 116 -30 0 -31 0 3 -112z"/>
</g>
</svg>
