<?xml version="1.0" standalone="no"?>
<!DOCTYPE svg PUBLIC "-//W3C//DTD SVG 20010904//EN"
 "http://www.w3.org/TR/2001/REC-SVG-20010904/DTD/svg10.dtd">
<svg version="1.0" xmlns="http://www.w3.org/2000/svg"
 width="256.000000pt" height="256.000000pt" viewBox="0 0 256.000000 256.000000"
 preserveAspectRatio="xMidYMid meet">

<g transform="translate(0.000000,256.000000) scale(0.100000,-0.100000)"
fill="#ffffff" stroke="none">
<path d="M1440 1680 l0 -230 -343 0 -343 0 -32 -33 -32 -33 0 -145 0 -146 31
-36 32 -37 139 0 139 0 -3 28 -3 27 -124 3 c-71 1 -130 7 -138 14 -18 15 -18
257 -1 281 12 15 51 17 373 19 l360 3 1 33 c1 17 2 122 3 232 l1 200 40 0 40
0 0 -390 0 -390 -162 -1 c-191 -1 -198 -2 -198 -11 0 -5 0 -42 0 -83 l0 -75
99 0 c80 0 103 -3 119 -17 31 -27 36 -63 12 -100 l-20 -33 -319 0 -320 0 -20
26 c-27 34 -27 66 2 99 21 25 27 26 137 28 l115 2 3 28 3 29 -128 -4 c-147 -3
-171 -14 -199 -84 -26 -68 3 -137 73 -173 35 -18 624 -15 668 3 68 29 96 126
55 193 -28 47 -67 63 -155 63 -73 0 -75 1 -75 25 l0 25 159 0 c141 0 161 2
182 19 l24 19 3 426 2 426 -100 0 -100 0 0 -230z"/>
<path d="M1217 1673 l-158 -157 21 -20 20 -21 157 158 158 157 -20 20 -20 20
-158 -157z"/>
<path d="M1680 1785 c0 -23 3 -25 48 -25 41 0 53 -5 81 -34 28 -29 32 -39 29
-77 l-3 -44 -77 -3 -78 -3 0 -29 c0 -25 4 -30 25 -30 l25 0 0 -400 0 -400 30
0 30 0 0 400 0 400 49 0 50 0 3 89 3 90 -43 45 c-42 45 -44 46 -108 46 -62 0
-64 -1 -64 -25z"/>
<path d="M835 1333 c2 -10 4 -24 4 -30 1 -8 14 -13 31 -13 27 0 30 3 30 30 0
27 -3 30 -34 30 -27 0 -34 -4 -31 -17z"/>
<path d="M832 1224 c2 -22 9 -27 36 -29 29 -2 32 0 32 26 0 27 -3 29 -36 29
-32 0 -35 -2 -32 -26z"/>
<path d="M1732 663 c3 -27 8 -29 48 -24 6 0 10 12 10 26 0 21 -5 25 -31 25
-27 0 -30 -3 -27 -27z"/>
</g>
</svg>
