<?xml version="1.0" standalone="no"?>
<!DOCTYPE svg PUBLIC "-//W3C//DTD SVG 20010904//EN"
 "http://www.w3.org/TR/2001/REC-SVG-20010904/DTD/svg10.dtd">
<svg version="1.0" xmlns="http://www.w3.org/2000/svg"
 width="256.000000pt" height="256.000000pt" viewBox="0 0 256.000000 256.000000"
 preserveAspectRatio="xMidYMid meet">

<g transform="translate(0.000000,256.000000) scale(0.100000,-0.100000)"
fill="#000000" stroke="none">
<path d="M1235 1890 c-156 -18 -316 -108 -410 -232 -152 -200 -175 -445 -64
-675 22 -45 38 -53 59 -28 11 13 10 22 -7 53 -60 107 -80 281 -48 406 47 180
187 330 364 392 365 127 750 -147 751 -533 0 -84 -16 -154 -55 -239 -31 -68
-32 -71 -13 -83 26 -16 37 -7 68 63 78 176 75 357 -10 534 -32 67 -57 101
-118 162 -139 139 -321 203 -517 180z"/>
<path d="M1240 1740 c-300 -53 -477 -368 -364 -650 18 -44 22 -46 48 -27 17
12 17 16 -3 77 -81 247 75 502 333 542 210 32 408 -101 462 -312 23 -92 14
-176 -30 -282 -5 -11 -1 -20 15 -28 19 -11 25 -10 36 6 41 56 58 230 33 324
-41 153 -165 286 -309 330 -71 22 -163 30 -221 20z"/>
<path d="M1194 1570 c-71 -28 -125 -78 -164 -152 -31 -57 -35 -71 -35 -145 0
-87 9 -109 43 -99 18 6 19 13 15 69 -7 79 8 132 52 190 68 89 199 125 307 84
105 -40 177 -165 163 -281 -7 -50 -5 -55 15 -61 27 -9 39 7 42 55 8 150 -58
272 -180 332 -66 32 -187 36 -258 8z"/>
<path d="M1222 1413 c-50 -33 -76 -81 -77 -146 l-1 -48 -223 -223 -222 -222
21 -19 c21 -19 22 -18 248 208 l227 227 120 0 120 0 190 -190 191 -191 19 21
c19 21 18 22 -167 208 l-186 187 -1 47 c-1 137 -145 215 -259 141z m166 -55
c17 -15 42 -69 42 -93 0 -13 -19 -15 -116 -15 l-117 0 6 36 c14 86 119 127
185 72z"/>
<path d="M1180 1100 l0 -31 133 3 132 3 3 28 3 27 -135 0 -136 0 0 -30z"/>
<path d="M1180 990 l0 -30 136 0 135 0 -3 28 -3 27 -132 3 -133 3 0 -31z"/>
<path d="M1180 870 l0 -30 135 0 135 0 0 30 0 30 -135 0 -135 0 0 -30z"/>
<path d="M1866 792 c-15 -18 -15 -20 4 -37 19 -17 21 -17 40 0 19 17 19 19 4
37 -10 10 -20 18 -24 18 -4 0 -14 -8 -24 -18z"/>
<path d="M1180 755 l0 -25 135 0 135 0 0 25 0 25 -135 0 -135 0 0 -25z"/>
</g>
</svg>
