<?xml version="1.0" standalone="no"?>
<!DOCTYPE svg PUBLIC "-//W3C//DTD SVG 20010904//EN"
 "http://www.w3.org/TR/2001/REC-SVG-20010904/DTD/svg10.dtd">
<svg version="1.0" xmlns="http://www.w3.org/2000/svg"
 width="256.000000pt" height="256.000000pt" viewBox="0 0 256.000000 256.000000"
 preserveAspectRatio="xMidYMid meet">

<g transform="translate(0.000000,256.000000) scale(0.100000,-0.100000)"
fill="#000000" stroke="none">
<path d="M1195 1753 l-107 -105 20 -20 20 -20 98 96 99 96 172 0 172 0 31 -30
30 -29 0 -226 0 -225 24 0 c69 0 74 -33 10 -62 -53 -23 -160 -22 -188 1 -23
20 -3 48 44 62 l40 12 0 204 0 203 -153 0 -153 0 -27 -28 c-31 -32 -33 -44
-12 -62 13 -11 20 -9 38 9 21 19 35 21 135 21 l112 0 0 -154 0 -154 -30 -12
c-62 -26 -82 -102 -35 -138 l24 -19 -24 -23 c-32 -30 -34 -81 -3 -110 l22 -20
-22 -23 c-32 -34 -30 -89 4 -116 14 -11 41 -23 59 -27 34 -6 36 -8 76 -126 7
-21 16 -35 19 -30 4 4 17 39 30 79 23 67 26 72 70 92 44 20 80 62 80 94 0 8
-10 27 -22 42 l-22 28 -18 -23 c-14 -17 -16 -26 -7 -36 26 -31 -53 -74 -135
-74 -46 0 -109 26 -104 42 8 24 64 48 139 58 120 17 193 82 159 144 -13 26
-38 41 -49 30 -3 -3 -6 -22 -6 -42 0 -33 -4 -39 -39 -56 -21 -10 -61 -19 -90
-20 -56 0 -119 20 -113 37 8 25 58 49 123 58 127 18 200 73 179 136 -6 16 -23
34 -42 43 -41 20 -44 37 -43 261 l2 182 -43 44 -44 44 -197 -1 -196 -1 -107
-106z"/>
<path d="M1048 1569 c-12 -7 -18 -22 -18 -49 l0 -40 -160 0 c-215 0 -202 13
-198 -209 2 -124 7 -172 17 -184 12 -15 48 -17 325 -17 229 0 315 3 324 12 17
17 17 469 0 486 -15 15 -265 16 -290 1z m250 -241 l-3 -203 -282 -3 -283 -2 0
150 0 150 83 1 c45 1 124 1 175 0 l92 -2 0 49 c0 27 3 52 7 55 3 4 53 7 110 7
l103 0 -2 -202z"/>
<path d="M1130 1460 l0 -30 60 0 60 0 0 30 0 30 -60 0 -60 0 0 -30z"/>
<path d="M893 1014 c-4 -10 -26 -14 -79 -14 -121 0 -174 -36 -174 -119 0 -29
7 -47 29 -70 l29 -31 307 0 307 0 29 29 c23 24 29 38 29 73 0 85 -48 118 -170
118 -47 0 -80 4 -80 10 0 6 -11 10 -25 10 -22 0 -25 -4 -25 -40 l0 -39 112 -3
c110 -3 113 -4 127 -29 13 -24 13 -29 -2 -53 l-17 -26 -279 0 c-257 0 -279 1
-294 18 -21 23 -22 56 -1 76 12 13 39 16 125 16 l109 0 0 39 c0 34 -3 39 -26
44 -16 3 -28 0 -31 -9z"/>
</g>
</svg>
