<?xml version="1.0" standalone="no"?>
<!DOCTYPE svg PUBLIC "-//W3C//DTD SVG 20010904//EN"
 "http://www.w3.org/TR/2001/REC-SVG-20010904/DTD/svg10.dtd">
<svg version="1.0" xmlns="http://www.w3.org/2000/svg"
 width="256.000000pt" height="256.000000pt" viewBox="0 0 256.000000 256.000000"
 preserveAspectRatio="xMidYMid meet">

<g transform="translate(0.000000,256.000000) scale(0.100000,-0.100000)"
fill="#000000" stroke="none">
<path d="M1475 1815 c-22 -7 -94 -27 -160 -45 -65 -17 -120 -32 -121 -33 0 -1
-38 -67 -84 -147 -146 -255 -266 -464 -288 -500 l-22 -35 -102 -5 c-102 -5
-103 -5 -103 -30 l0 -25 119 0 120 0 193 335 c107 184 197 341 202 348 4 7 72
31 152 52 139 38 150 40 300 40 l157 0 4 30 5 30 -166 -1 c-109 0 -180 -5
-206 -14z"/>
<path d="M1620 1741 c-15 -29 -13 -37 15 -49 22 -10 26 -9 39 17 14 27 14 29
-10 40 -32 14 -31 14 -44 -8z"/>
<path d="M1568 1644 c-11 -23 -10 -28 7 -40 23 -17 34 -14 52 13 14 20 12 23
-16 38 -31 15 -31 15 -43 -11z"/>
<path d="M1690 1600 l0 -30 78 0 79 0 -2 28 c-1 27 -2 27 -78 30 l-77 3 0 -31z"/>
<path d="M1508 1555 c-10 -21 -8 -28 8 -40 26 -19 29 -19 47 9 15 23 15 25 -8
40 -32 21 -33 20 -47 -9z"/>
<path d="M1446 1476 c-14 -22 -13 -25 4 -41 19 -17 21 -17 40 0 26 23 25 29
-4 48 -23 15 -25 15 -40 -7z"/>
<path d="M1610 1416 c0 -24 1 -25 106 -28 58 -2 109 -1 113 2 4 3 10 15 13 28
6 22 6 22 -113 22 l-119 0 0 -24z"/>
<path d="M1376 1402 c-32 -36 12 -79 46 -44 18 18 18 19 -5 40 -23 22 -24 22
-41 4z"/>
<path d="M1291 1326 c-9 -11 -9 -19 1 -35 16 -26 30 -27 51 -3 13 14 13 20 3
35 -16 21 -39 22 -55 3z"/>
<path d="M1211 1263 c-20 -18 -20 -19 -2 -42 17 -23 19 -23 44 -6 25 16 26 18
10 41 -18 29 -24 29 -52 7z"/>
<path d="M1400 1230 l0 -30 223 0 223 0 -2 28 -1 27 -221 3 -222 2 0 -30z"/>
<path d="M1126 1207 c-15 -11 -16 -17 -5 -39 11 -26 13 -27 40 -12 28 14 29
15 13 39 -19 29 -24 30 -48 12z"/>
<path d="M1033 1158 c-21 -10 -21 -12 -7 -40 13 -25 17 -27 37 -17 12 7 23 13
25 14 5 4 -21 55 -27 54 -3 0 -16 -5 -28 -11z"/>
<path d="M932 1111 c-9 -5 -11 -17 -6 -34 7 -30 11 -31 48 -17 23 8 25 12 14
35 -11 25 -32 32 -56 16z"/>
<path d="M1120 1045 l0 -25 364 0 c342 0 364 1 361 18 -2 9 -4 20 -4 25 -1 4
-163 7 -361 7 l-360 0 0 -25z"/>
<path d="M595 870 c-3 -11 -3 -24 0 -30 6 -10 1237 -15 1247 -5 3 3 3 17 0 30
l-4 25 -618 0 c-609 0 -619 0 -625 -20z"/>
</g>
</svg>
