<?xml version="1.0" standalone="no"?>
<!DOCTYPE svg PUBLIC "-//W3C//DTD SVG 20010904//EN"
 "http://www.w3.org/TR/2001/REC-SVG-20010904/DTD/svg10.dtd">
<svg version="1.0" xmlns="http://www.w3.org/2000/svg"
 width="256.000000pt" height="256.000000pt" viewBox="0 0 256.000000 256.000000"
 preserveAspectRatio="xMidYMid meet">

<g transform="translate(0.000000,256.000000) scale(0.100000,-0.100000)"
fill="#000000" stroke="none">
<path d="M1595 1990 c-22 -5 -107 -20 -189 -35 l-149 -26 -26 25 c-24 23 -36
26 -94 26 l-67 0 0 -230 0 -230 30 0 30 0 0 -60 0 -60 116 0 115 0 -2 58 -3
57 32 3 32 3 0 104 0 103 28 6 c15 3 95 17 177 31 206 36 188 26 180 93 -9 71
-10 74 -62 111 -45 32 -72 36 -148 21z m117 -73 c16 -12 29 -33 30 -47 3 -27
24 -21 -279 -75 l-92 -17 -3 -101 -3 -102 -32 3 -33 4 0 -60 0 -60 -55 -4 -55
-3 0 63 0 62 -35 0 -35 0 0 170 0 170 32 0 c21 0 41 -9 58 -25 30 -29 15 -30
285 19 166 31 184 31 217 3z"/>
<path d="M1106 1322 c-15 -18 -15 -20 2 -35 52 -47 157 -60 227 -28 57 26 70
44 46 65 -18 16 -21 16 -52 -3 -45 -28 -123 -28 -167 -1 -39 24 -35 24 -56 2z"/>
<path d="M1021 1208 c-18 -29 -14 -35 54 -69 114 -56 252 -52 363 12 52 29 52
30 35 52 l-17 23 -55 -30 c-48 -26 -69 -31 -146 -34 -86 -4 -93 -2 -156 30
-62 31 -68 32 -78 16z"/>
<path d="M720 825 l0 -205 525 0 525 0 0 205 0 205 -525 0 -525 0 0 -205z
m990 0 l0 -145 -465 0 -465 0 0 145 0 145 465 0 465 0 0 -145z"/>
<path d="M850 880 c0 -25 4 -30 25 -30 21 0 25 5 25 30 0 25 -4 30 -25 30 -21
0 -25 -5 -25 -30z"/>
<path d="M970 879 c0 -27 3 -30 28 -27 21 2 28 9 30 31 3 24 0 27 -27 27 -28
0 -31 -3 -31 -31z"/>
<path d="M1092 883 c2 -22 9 -29 31 -31 24 -3 27 0 27 27 0 28 -3 31 -31 31
-27 0 -30 -3 -27 -27z"/>
<path d="M1220 880 c0 -25 4 -30 25 -30 21 0 25 5 25 30 0 25 -4 30 -25 30
-21 0 -25 -5 -25 -30z"/>
<path d="M1340 879 c0 -27 3 -30 28 -27 21 2 28 9 30 31 3 24 0 27 -27 27 -28
0 -31 -3 -31 -31z"/>
<path d="M1462 883 c2 -22 9 -29 31 -31 24 -3 27 0 27 27 0 28 -3 31 -31 31
-27 0 -30 -3 -27 -27z"/>
<path d="M1590 879 c0 -27 3 -30 26 -27 21 2 28 9 30 31 2 24 -1 27 -27 27
-26 0 -29 -3 -29 -31z"/>
<path d="M850 765 c0 -20 5 -25 25 -25 20 0 25 5 25 25 0 20 -5 25 -25 25 -20
0 -25 -5 -25 -25z"/>
<path d="M970 765 c0 -21 5 -25 30 -25 25 0 30 4 30 25 0 21 -5 25 -30 25 -25
0 -30 -4 -30 -25z"/>
<path d="M1090 765 c0 -21 5 -25 30 -25 25 0 30 4 30 25 0 21 -5 25 -30 25
-25 0 -30 -4 -30 -25z"/>
<path d="M1220 765 c0 -21 5 -25 28 -25 22 0 27 4 27 25 0 21 -5 25 -27 25
-23 0 -28 -4 -28 -25z"/>
<path d="M1340 765 c0 -21 5 -25 30 -25 25 0 30 4 30 25 0 21 -5 25 -30 25
-25 0 -30 -4 -30 -25z"/>
<path d="M1460 765 c0 -21 5 -25 30 -25 25 0 30 4 30 25 0 21 -5 25 -30 25
-25 0 -30 -4 -30 -25z"/>
<path d="M1585 773 c2 -10 4 -21 4 -25 1 -5 13 -8 29 -8 22 0 27 4 27 25 0 21
-5 25 -32 25 -24 0 -30 -4 -28 -17z"/>
</g>
</svg>
