<?xml version="1.0" standalone="no"?>
<!DOCTYPE svg PUBLIC "-//W3C//DTD SVG 20010904//EN"
 "http://www.w3.org/TR/2001/REC-SVG-20010904/DTD/svg10.dtd">
<svg version="1.0" xmlns="http://www.w3.org/2000/svg"
 width="130.000000pt" height="127.000000pt" viewBox="0 0 130.000000 127.000000"
 preserveAspectRatio="xMidYMid meet">

<g transform="translate(0.000000,127.000000) scale(0.100000,-0.100000)"
fill="#000000" stroke="none">
<path d="M750 965 l0 -165 -244 0 c-311 0 -296 8 -296 -154 0 -110 0 -113 28
-140 28 -26 32 -27 123 -24 86 3 94 5 94 23 0 18 -8 20 -89 23 -50 2 -96 8
-103 14 -20 16 -18 182 3 202 13 14 52 16 272 16 l257 0 0 162 0 163 27 3 27
3 3 -113 c2 -62 2 -188 0 -280 l-3 -167 -127 -3 -127 -3 -3 -57 -3 -58 68 0
c81 0 113 -17 113 -59 0 -50 -7 -51 -257 -51 l-233 0 -15 24 c-11 17 -13 30
-6 48 13 33 28 38 122 38 72 0 79 2 79 20 0 18 -7 20 -85 20 -99 0 -136 -14
-155 -59 -16 -39 -5 -82 26 -112 25 -23 30 -24 237 -27 117 -2 227 0 246 3 52
10 81 45 81 99 0 37 -5 48 -31 70 -25 22 -41 26 -90 26 -44 0 -59 4 -59 14 0
11 25 15 120 18 80 2 123 7 132 16 10 10 14 85 16 322 l3 310 -76 0 -75 0 0
-165z"/>
<path d="M592 958 c-102 -101 -111 -113 -97 -127 14 -14 26 -5 125 94 102 101
122 133 94 142 -5 2 -61 -47 -122 -109z"/>
<path d="M930 1040 c0 -16 7 -20 38 -20 47 0 72 -26 72 -75 l0 -35 -55 0 c-52
0 -55 -1 -55 -25 0 -15 6 -25 15 -25 13 0 15 -41 17 -287 l3 -288 23 -3 22 -3
0 290 0 291 35 0 35 0 0 73 c0 69 -2 75 -30 100 -23 21 -40 27 -75 27 -38 0
-45 -3 -45 -20z"/>
<path d="M320 705 c0 -18 5 -25 20 -25 15 0 20 7 20 25 0 18 -5 25 -20 25 -15
0 -20 -7 -20 -25z"/>
<path d="M313 643 c-7 -18 5 -33 28 -33 13 0 19 7 19 23 0 16 -6 23 -21 23
-12 0 -23 -6 -26 -13z"/>
<path d="M967 243 c-16 -15 -6 -33 18 -33 18 0 25 5 25 20 0 20 -28 28 -43 13z"/>
</g>
</svg>
